G04 #@! TF.GenerationSoftware,KiCad,Pcbnew,8.0.5*
G04 #@! TF.CreationDate,2024-10-28T15:03:54+01:00*
G04 #@! TF.ProjectId,Aurelia-robotics-PCB,41757265-6c69-4612-9d72-6f626f746963,rev?*
G04 #@! TF.SameCoordinates,Original*
G04 #@! TF.FileFunction,Legend,Bot*
G04 #@! TF.FilePolarity,Positive*
%FSLAX46Y46*%
G04 Gerber Fmt 4.6, Leading zero omitted, Abs format (unit mm)*
G04 Created by KiCad (PCBNEW 8.0.5) date 2024-10-28 15:03:54*
%MOMM*%
%LPD*%
G01*
G04 APERTURE LIST*
G04 Aperture macros list*
%AMRoundRect*
0 Rectangle with rounded corners*
0 $1 Rounding radius*
0 $2 $3 $4 $5 $6 $7 $8 $9 X,Y pos of 4 corners*
0 Add a 4 corners polygon primitive as box body*
4,1,4,$2,$3,$4,$5,$6,$7,$8,$9,$2,$3,0*
0 Add four circle primitives for the rounded corners*
1,1,$1+$1,$2,$3*
1,1,$1+$1,$4,$5*
1,1,$1+$1,$6,$7*
1,1,$1+$1,$8,$9*
0 Add four rect primitives between the rounded corners*
20,1,$1+$1,$2,$3,$4,$5,0*
20,1,$1+$1,$4,$5,$6,$7,0*
20,1,$1+$1,$6,$7,$8,$9,0*
20,1,$1+$1,$8,$9,$2,$3,0*%
G04 Aperture macros list end*
%ADD10C,0.300000*%
%ADD11C,0.150000*%
%ADD12C,0.120000*%
%ADD13C,3.200000*%
%ADD14C,1.400000*%
%ADD15RoundRect,0.250000X-0.350000X-0.625000X0.350000X-0.625000X0.350000X0.625000X-0.350000X0.625000X0*%
%ADD16O,1.200000X1.750000*%
%ADD17RoundRect,0.250000X-0.625000X0.350000X-0.625000X-0.350000X0.625000X-0.350000X0.625000X0.350000X0*%
%ADD18O,1.750000X1.200000*%
%ADD19R,1.700000X1.700000*%
%ADD20O,1.700000X1.700000*%
%ADD21O,1.000000X1.700000*%
%ADD22R,0.900000X2.000000*%
%ADD23RoundRect,1.025000X-1.025000X-1.025000X1.025000X-1.025000X1.025000X1.025000X-1.025000X1.025000X0*%
%ADD24C,4.100000*%
%ADD25O,2.900000X1.200000*%
%ADD26RoundRect,0.237500X-0.250000X-0.237500X0.250000X-0.237500X0.250000X0.237500X-0.250000X0.237500X0*%
%ADD27RoundRect,0.237500X0.250000X0.237500X-0.250000X0.237500X-0.250000X-0.237500X0.250000X-0.237500X0*%
G04 APERTURE END LIST*
D10*
X176870996Y-27611653D02*
X178370996Y-27968796D01*
X178370996Y-27968796D02*
X177299568Y-28254510D01*
X177299568Y-28254510D02*
X178370996Y-28540225D01*
X178370996Y-28540225D02*
X176870996Y-28897368D01*
X178370996Y-29683082D02*
X178299568Y-29540225D01*
X178299568Y-29540225D02*
X178228139Y-29468796D01*
X178228139Y-29468796D02*
X178085282Y-29397368D01*
X178085282Y-29397368D02*
X177656710Y-29397368D01*
X177656710Y-29397368D02*
X177513853Y-29468796D01*
X177513853Y-29468796D02*
X177442425Y-29540225D01*
X177442425Y-29540225D02*
X177370996Y-29683082D01*
X177370996Y-29683082D02*
X177370996Y-29897368D01*
X177370996Y-29897368D02*
X177442425Y-30040225D01*
X177442425Y-30040225D02*
X177513853Y-30111654D01*
X177513853Y-30111654D02*
X177656710Y-30183082D01*
X177656710Y-30183082D02*
X178085282Y-30183082D01*
X178085282Y-30183082D02*
X178228139Y-30111654D01*
X178228139Y-30111654D02*
X178299568Y-30040225D01*
X178299568Y-30040225D02*
X178370996Y-29897368D01*
X178370996Y-29897368D02*
X178370996Y-29683082D01*
X178370996Y-31040225D02*
X178299568Y-30897368D01*
X178299568Y-30897368D02*
X178156710Y-30825939D01*
X178156710Y-30825939D02*
X176870996Y-30825939D01*
X177370996Y-31468796D02*
X178370996Y-31825939D01*
X178370996Y-31825939D02*
X177370996Y-32183082D01*
X178370996Y-32754510D02*
X177370996Y-32754510D01*
X176870996Y-32754510D02*
X176942425Y-32683082D01*
X176942425Y-32683082D02*
X177013853Y-32754510D01*
X177013853Y-32754510D02*
X176942425Y-32825939D01*
X176942425Y-32825939D02*
X176870996Y-32754510D01*
X176870996Y-32754510D02*
X177013853Y-32754510D01*
X177370996Y-33468796D02*
X178370996Y-33468796D01*
X177513853Y-33468796D02*
X177442425Y-33540225D01*
X177442425Y-33540225D02*
X177370996Y-33683082D01*
X177370996Y-33683082D02*
X177370996Y-33897368D01*
X177370996Y-33897368D02*
X177442425Y-34040225D01*
X177442425Y-34040225D02*
X177585282Y-34111654D01*
X177585282Y-34111654D02*
X178370996Y-34111654D01*
X178299568Y-35397368D02*
X178370996Y-35254511D01*
X178370996Y-35254511D02*
X178370996Y-34968797D01*
X178370996Y-34968797D02*
X178299568Y-34825939D01*
X178299568Y-34825939D02*
X178156710Y-34754511D01*
X178156710Y-34754511D02*
X177585282Y-34754511D01*
X177585282Y-34754511D02*
X177442425Y-34825939D01*
X177442425Y-34825939D02*
X177370996Y-34968797D01*
X177370996Y-34968797D02*
X177370996Y-35254511D01*
X177370996Y-35254511D02*
X177442425Y-35397368D01*
X177442425Y-35397368D02*
X177585282Y-35468797D01*
X177585282Y-35468797D02*
X177728139Y-35468797D01*
X177728139Y-35468797D02*
X177870996Y-34754511D01*
X178299568Y-36683082D02*
X178370996Y-36540225D01*
X178370996Y-36540225D02*
X178370996Y-36254511D01*
X178370996Y-36254511D02*
X178299568Y-36111653D01*
X178299568Y-36111653D02*
X178156710Y-36040225D01*
X178156710Y-36040225D02*
X177585282Y-36040225D01*
X177585282Y-36040225D02*
X177442425Y-36111653D01*
X177442425Y-36111653D02*
X177370996Y-36254511D01*
X177370996Y-36254511D02*
X177370996Y-36540225D01*
X177370996Y-36540225D02*
X177442425Y-36683082D01*
X177442425Y-36683082D02*
X177585282Y-36754511D01*
X177585282Y-36754511D02*
X177728139Y-36754511D01*
X177728139Y-36754511D02*
X177870996Y-36040225D01*
X178370996Y-37397367D02*
X177370996Y-37397367D01*
X177656710Y-37397367D02*
X177513853Y-37468796D01*
X177513853Y-37468796D02*
X177442425Y-37540225D01*
X177442425Y-37540225D02*
X177370996Y-37683082D01*
X177370996Y-37683082D02*
X177370996Y-37825939D01*
X178299568Y-38254510D02*
X178370996Y-38397367D01*
X178370996Y-38397367D02*
X178370996Y-38683081D01*
X178370996Y-38683081D02*
X178299568Y-38825938D01*
X178299568Y-38825938D02*
X178156710Y-38897367D01*
X178156710Y-38897367D02*
X178085282Y-38897367D01*
X178085282Y-38897367D02*
X177942425Y-38825938D01*
X177942425Y-38825938D02*
X177870996Y-38683081D01*
X177870996Y-38683081D02*
X177870996Y-38468796D01*
X177870996Y-38468796D02*
X177799568Y-38325938D01*
X177799568Y-38325938D02*
X177656710Y-38254510D01*
X177656710Y-38254510D02*
X177585282Y-38254510D01*
X177585282Y-38254510D02*
X177442425Y-38325938D01*
X177442425Y-38325938D02*
X177370996Y-38468796D01*
X177370996Y-38468796D02*
X177370996Y-38683081D01*
X177370996Y-38683081D02*
X177442425Y-38825938D01*
X180785912Y-27754510D02*
X179285912Y-27754510D01*
X179285912Y-27754510D02*
X179285912Y-28325939D01*
X179285912Y-28325939D02*
X179357341Y-28468796D01*
X179357341Y-28468796D02*
X179428769Y-28540225D01*
X179428769Y-28540225D02*
X179571626Y-28611653D01*
X179571626Y-28611653D02*
X179785912Y-28611653D01*
X179785912Y-28611653D02*
X179928769Y-28540225D01*
X179928769Y-28540225D02*
X180000198Y-28468796D01*
X180000198Y-28468796D02*
X180071626Y-28325939D01*
X180071626Y-28325939D02*
X180071626Y-27754510D01*
X180785912Y-29468796D02*
X180714484Y-29325939D01*
X180714484Y-29325939D02*
X180643055Y-29254510D01*
X180643055Y-29254510D02*
X180500198Y-29183082D01*
X180500198Y-29183082D02*
X180071626Y-29183082D01*
X180071626Y-29183082D02*
X179928769Y-29254510D01*
X179928769Y-29254510D02*
X179857341Y-29325939D01*
X179857341Y-29325939D02*
X179785912Y-29468796D01*
X179785912Y-29468796D02*
X179785912Y-29683082D01*
X179785912Y-29683082D02*
X179857341Y-29825939D01*
X179857341Y-29825939D02*
X179928769Y-29897368D01*
X179928769Y-29897368D02*
X180071626Y-29968796D01*
X180071626Y-29968796D02*
X180500198Y-29968796D01*
X180500198Y-29968796D02*
X180643055Y-29897368D01*
X180643055Y-29897368D02*
X180714484Y-29825939D01*
X180714484Y-29825939D02*
X180785912Y-29683082D01*
X180785912Y-29683082D02*
X180785912Y-29468796D01*
X179785912Y-30468796D02*
X180785912Y-30754511D01*
X180785912Y-30754511D02*
X180071626Y-31040225D01*
X180071626Y-31040225D02*
X180785912Y-31325939D01*
X180785912Y-31325939D02*
X179785912Y-31611653D01*
X180714484Y-32754511D02*
X180785912Y-32611654D01*
X180785912Y-32611654D02*
X180785912Y-32325940D01*
X180785912Y-32325940D02*
X180714484Y-32183082D01*
X180714484Y-32183082D02*
X180571626Y-32111654D01*
X180571626Y-32111654D02*
X180000198Y-32111654D01*
X180000198Y-32111654D02*
X179857341Y-32183082D01*
X179857341Y-32183082D02*
X179785912Y-32325940D01*
X179785912Y-32325940D02*
X179785912Y-32611654D01*
X179785912Y-32611654D02*
X179857341Y-32754511D01*
X179857341Y-32754511D02*
X180000198Y-32825940D01*
X180000198Y-32825940D02*
X180143055Y-32825940D01*
X180143055Y-32825940D02*
X180285912Y-32111654D01*
X180785912Y-33468796D02*
X179785912Y-33468796D01*
X180071626Y-33468796D02*
X179928769Y-33540225D01*
X179928769Y-33540225D02*
X179857341Y-33611654D01*
X179857341Y-33611654D02*
X179785912Y-33754511D01*
X179785912Y-33754511D02*
X179785912Y-33897368D01*
X180785912Y-35540224D02*
X179285912Y-35540224D01*
X179285912Y-35540224D02*
X179285912Y-36111653D01*
X179285912Y-36111653D02*
X179357341Y-36254510D01*
X179357341Y-36254510D02*
X179428769Y-36325939D01*
X179428769Y-36325939D02*
X179571626Y-36397367D01*
X179571626Y-36397367D02*
X179785912Y-36397367D01*
X179785912Y-36397367D02*
X179928769Y-36325939D01*
X179928769Y-36325939D02*
X180000198Y-36254510D01*
X180000198Y-36254510D02*
X180071626Y-36111653D01*
X180071626Y-36111653D02*
X180071626Y-35540224D01*
X180643055Y-37897367D02*
X180714484Y-37825939D01*
X180714484Y-37825939D02*
X180785912Y-37611653D01*
X180785912Y-37611653D02*
X180785912Y-37468796D01*
X180785912Y-37468796D02*
X180714484Y-37254510D01*
X180714484Y-37254510D02*
X180571626Y-37111653D01*
X180571626Y-37111653D02*
X180428769Y-37040224D01*
X180428769Y-37040224D02*
X180143055Y-36968796D01*
X180143055Y-36968796D02*
X179928769Y-36968796D01*
X179928769Y-36968796D02*
X179643055Y-37040224D01*
X179643055Y-37040224D02*
X179500198Y-37111653D01*
X179500198Y-37111653D02*
X179357341Y-37254510D01*
X179357341Y-37254510D02*
X179285912Y-37468796D01*
X179285912Y-37468796D02*
X179285912Y-37611653D01*
X179285912Y-37611653D02*
X179357341Y-37825939D01*
X179357341Y-37825939D02*
X179428769Y-37897367D01*
X180000198Y-39040224D02*
X180071626Y-39254510D01*
X180071626Y-39254510D02*
X180143055Y-39325939D01*
X180143055Y-39325939D02*
X180285912Y-39397367D01*
X180285912Y-39397367D02*
X180500198Y-39397367D01*
X180500198Y-39397367D02*
X180643055Y-39325939D01*
X180643055Y-39325939D02*
X180714484Y-39254510D01*
X180714484Y-39254510D02*
X180785912Y-39111653D01*
X180785912Y-39111653D02*
X180785912Y-38540224D01*
X180785912Y-38540224D02*
X179285912Y-38540224D01*
X179285912Y-38540224D02*
X179285912Y-39040224D01*
X179285912Y-39040224D02*
X179357341Y-39183082D01*
X179357341Y-39183082D02*
X179428769Y-39254510D01*
X179428769Y-39254510D02*
X179571626Y-39325939D01*
X179571626Y-39325939D02*
X179714484Y-39325939D01*
X179714484Y-39325939D02*
X179857341Y-39254510D01*
X179857341Y-39254510D02*
X179928769Y-39183082D01*
X179928769Y-39183082D02*
X180000198Y-39040224D01*
X180000198Y-39040224D02*
X180000198Y-38540224D01*
X181700828Y-27540225D02*
X183200828Y-28040225D01*
X183200828Y-28040225D02*
X181700828Y-28540225D01*
X183129400Y-29611653D02*
X183200828Y-29468796D01*
X183200828Y-29468796D02*
X183200828Y-29183082D01*
X183200828Y-29183082D02*
X183129400Y-29040224D01*
X183129400Y-29040224D02*
X182986542Y-28968796D01*
X182986542Y-28968796D02*
X182415114Y-28968796D01*
X182415114Y-28968796D02*
X182272257Y-29040224D01*
X182272257Y-29040224D02*
X182200828Y-29183082D01*
X182200828Y-29183082D02*
X182200828Y-29468796D01*
X182200828Y-29468796D02*
X182272257Y-29611653D01*
X182272257Y-29611653D02*
X182415114Y-29683082D01*
X182415114Y-29683082D02*
X182557971Y-29683082D01*
X182557971Y-29683082D02*
X182700828Y-28968796D01*
X183200828Y-30325938D02*
X182200828Y-30325938D01*
X182486542Y-30325938D02*
X182343685Y-30397367D01*
X182343685Y-30397367D02*
X182272257Y-30468796D01*
X182272257Y-30468796D02*
X182200828Y-30611653D01*
X182200828Y-30611653D02*
X182200828Y-30754510D01*
X183057971Y-31254509D02*
X183129400Y-31325938D01*
X183129400Y-31325938D02*
X183200828Y-31254509D01*
X183200828Y-31254509D02*
X183129400Y-31183081D01*
X183129400Y-31183081D02*
X183057971Y-31254509D01*
X183057971Y-31254509D02*
X183200828Y-31254509D01*
X182200828Y-32968795D02*
X183200828Y-33325938D01*
X183200828Y-33325938D02*
X182200828Y-33683081D01*
X181843685Y-34183081D02*
X181772257Y-34254509D01*
X181772257Y-34254509D02*
X181700828Y-34397367D01*
X181700828Y-34397367D02*
X181700828Y-34754509D01*
X181700828Y-34754509D02*
X181772257Y-34897367D01*
X181772257Y-34897367D02*
X181843685Y-34968795D01*
X181843685Y-34968795D02*
X181986542Y-35040224D01*
X181986542Y-35040224D02*
X182129400Y-35040224D01*
X182129400Y-35040224D02*
X182343685Y-34968795D01*
X182343685Y-34968795D02*
X183200828Y-34111652D01*
X183200828Y-34111652D02*
X183200828Y-35040224D01*
X183057971Y-35683080D02*
X183129400Y-35754509D01*
X183129400Y-35754509D02*
X183200828Y-35683080D01*
X183200828Y-35683080D02*
X183129400Y-35611652D01*
X183129400Y-35611652D02*
X183057971Y-35683080D01*
X183057971Y-35683080D02*
X183200828Y-35683080D01*
X181700828Y-36683081D02*
X181700828Y-36825938D01*
X181700828Y-36825938D02*
X181772257Y-36968795D01*
X181772257Y-36968795D02*
X181843685Y-37040224D01*
X181843685Y-37040224D02*
X181986542Y-37111652D01*
X181986542Y-37111652D02*
X182272257Y-37183081D01*
X182272257Y-37183081D02*
X182629400Y-37183081D01*
X182629400Y-37183081D02*
X182915114Y-37111652D01*
X182915114Y-37111652D02*
X183057971Y-37040224D01*
X183057971Y-37040224D02*
X183129400Y-36968795D01*
X183129400Y-36968795D02*
X183200828Y-36825938D01*
X183200828Y-36825938D02*
X183200828Y-36683081D01*
X183200828Y-36683081D02*
X183129400Y-36540224D01*
X183129400Y-36540224D02*
X183057971Y-36468795D01*
X183057971Y-36468795D02*
X182915114Y-36397366D01*
X182915114Y-36397366D02*
X182629400Y-36325938D01*
X182629400Y-36325938D02*
X182272257Y-36325938D01*
X182272257Y-36325938D02*
X181986542Y-36397366D01*
X181986542Y-36397366D02*
X181843685Y-36468795D01*
X181843685Y-36468795D02*
X181772257Y-36540224D01*
X181772257Y-36540224D02*
X181700828Y-36683081D01*
D11*
X152026857Y-114914819D02*
X152360190Y-114438628D01*
X152598285Y-114914819D02*
X152598285Y-113914819D01*
X152598285Y-113914819D02*
X152217333Y-113914819D01*
X152217333Y-113914819D02*
X152122095Y-113962438D01*
X152122095Y-113962438D02*
X152074476Y-114010057D01*
X152074476Y-114010057D02*
X152026857Y-114105295D01*
X152026857Y-114105295D02*
X152026857Y-114248152D01*
X152026857Y-114248152D02*
X152074476Y-114343390D01*
X152074476Y-114343390D02*
X152122095Y-114391009D01*
X152122095Y-114391009D02*
X152217333Y-114438628D01*
X152217333Y-114438628D02*
X152598285Y-114438628D01*
X151645904Y-114010057D02*
X151598285Y-113962438D01*
X151598285Y-113962438D02*
X151503047Y-113914819D01*
X151503047Y-113914819D02*
X151264952Y-113914819D01*
X151264952Y-113914819D02*
X151169714Y-113962438D01*
X151169714Y-113962438D02*
X151122095Y-114010057D01*
X151122095Y-114010057D02*
X151074476Y-114105295D01*
X151074476Y-114105295D02*
X151074476Y-114200533D01*
X151074476Y-114200533D02*
X151122095Y-114343390D01*
X151122095Y-114343390D02*
X151693523Y-114914819D01*
X151693523Y-114914819D02*
X151074476Y-114914819D01*
X150455428Y-113914819D02*
X150360190Y-113914819D01*
X150360190Y-113914819D02*
X150264952Y-113962438D01*
X150264952Y-113962438D02*
X150217333Y-114010057D01*
X150217333Y-114010057D02*
X150169714Y-114105295D01*
X150169714Y-114105295D02*
X150122095Y-114295771D01*
X150122095Y-114295771D02*
X150122095Y-114533866D01*
X150122095Y-114533866D02*
X150169714Y-114724342D01*
X150169714Y-114724342D02*
X150217333Y-114819580D01*
X150217333Y-114819580D02*
X150264952Y-114867200D01*
X150264952Y-114867200D02*
X150360190Y-114914819D01*
X150360190Y-114914819D02*
X150455428Y-114914819D01*
X150455428Y-114914819D02*
X150550666Y-114867200D01*
X150550666Y-114867200D02*
X150598285Y-114819580D01*
X150598285Y-114819580D02*
X150645904Y-114724342D01*
X150645904Y-114724342D02*
X150693523Y-114533866D01*
X150693523Y-114533866D02*
X150693523Y-114295771D01*
X150693523Y-114295771D02*
X150645904Y-114105295D01*
X150645904Y-114105295D02*
X150598285Y-114010057D01*
X150598285Y-114010057D02*
X150550666Y-113962438D01*
X150550666Y-113962438D02*
X150455428Y-113914819D01*
X130291666Y-110530819D02*
X130624999Y-110054628D01*
X130863094Y-110530819D02*
X130863094Y-109530819D01*
X130863094Y-109530819D02*
X130482142Y-109530819D01*
X130482142Y-109530819D02*
X130386904Y-109578438D01*
X130386904Y-109578438D02*
X130339285Y-109626057D01*
X130339285Y-109626057D02*
X130291666Y-109721295D01*
X130291666Y-109721295D02*
X130291666Y-109864152D01*
X130291666Y-109864152D02*
X130339285Y-109959390D01*
X130339285Y-109959390D02*
X130386904Y-110007009D01*
X130386904Y-110007009D02*
X130482142Y-110054628D01*
X130482142Y-110054628D02*
X130863094Y-110054628D01*
X129958332Y-109530819D02*
X129291666Y-109530819D01*
X129291666Y-109530819D02*
X129720237Y-110530819D01*
X152242857Y-110654819D02*
X152576190Y-110178628D01*
X152814285Y-110654819D02*
X152814285Y-109654819D01*
X152814285Y-109654819D02*
X152433333Y-109654819D01*
X152433333Y-109654819D02*
X152338095Y-109702438D01*
X152338095Y-109702438D02*
X152290476Y-109750057D01*
X152290476Y-109750057D02*
X152242857Y-109845295D01*
X152242857Y-109845295D02*
X152242857Y-109988152D01*
X152242857Y-109988152D02*
X152290476Y-110083390D01*
X152290476Y-110083390D02*
X152338095Y-110131009D01*
X152338095Y-110131009D02*
X152433333Y-110178628D01*
X152433333Y-110178628D02*
X152814285Y-110178628D01*
X151290476Y-110654819D02*
X151861904Y-110654819D01*
X151576190Y-110654819D02*
X151576190Y-109654819D01*
X151576190Y-109654819D02*
X151671428Y-109797676D01*
X151671428Y-109797676D02*
X151766666Y-109892914D01*
X151766666Y-109892914D02*
X151861904Y-109940533D01*
X150719047Y-110083390D02*
X150814285Y-110035771D01*
X150814285Y-110035771D02*
X150861904Y-109988152D01*
X150861904Y-109988152D02*
X150909523Y-109892914D01*
X150909523Y-109892914D02*
X150909523Y-109845295D01*
X150909523Y-109845295D02*
X150861904Y-109750057D01*
X150861904Y-109750057D02*
X150814285Y-109702438D01*
X150814285Y-109702438D02*
X150719047Y-109654819D01*
X150719047Y-109654819D02*
X150528571Y-109654819D01*
X150528571Y-109654819D02*
X150433333Y-109702438D01*
X150433333Y-109702438D02*
X150385714Y-109750057D01*
X150385714Y-109750057D02*
X150338095Y-109845295D01*
X150338095Y-109845295D02*
X150338095Y-109892914D01*
X150338095Y-109892914D02*
X150385714Y-109988152D01*
X150385714Y-109988152D02*
X150433333Y-110035771D01*
X150433333Y-110035771D02*
X150528571Y-110083390D01*
X150528571Y-110083390D02*
X150719047Y-110083390D01*
X150719047Y-110083390D02*
X150814285Y-110131009D01*
X150814285Y-110131009D02*
X150861904Y-110178628D01*
X150861904Y-110178628D02*
X150909523Y-110273866D01*
X150909523Y-110273866D02*
X150909523Y-110464342D01*
X150909523Y-110464342D02*
X150861904Y-110559580D01*
X150861904Y-110559580D02*
X150814285Y-110607200D01*
X150814285Y-110607200D02*
X150719047Y-110654819D01*
X150719047Y-110654819D02*
X150528571Y-110654819D01*
X150528571Y-110654819D02*
X150433333Y-110607200D01*
X150433333Y-110607200D02*
X150385714Y-110559580D01*
X150385714Y-110559580D02*
X150338095Y-110464342D01*
X150338095Y-110464342D02*
X150338095Y-110273866D01*
X150338095Y-110273866D02*
X150385714Y-110178628D01*
X150385714Y-110178628D02*
X150433333Y-110131009D01*
X150433333Y-110131009D02*
X150528571Y-110083390D01*
X160916857Y-112054819D02*
X161250190Y-111578628D01*
X161488285Y-112054819D02*
X161488285Y-111054819D01*
X161488285Y-111054819D02*
X161107333Y-111054819D01*
X161107333Y-111054819D02*
X161012095Y-111102438D01*
X161012095Y-111102438D02*
X160964476Y-111150057D01*
X160964476Y-111150057D02*
X160916857Y-111245295D01*
X160916857Y-111245295D02*
X160916857Y-111388152D01*
X160916857Y-111388152D02*
X160964476Y-111483390D01*
X160964476Y-111483390D02*
X161012095Y-111531009D01*
X161012095Y-111531009D02*
X161107333Y-111578628D01*
X161107333Y-111578628D02*
X161488285Y-111578628D01*
X160535904Y-111150057D02*
X160488285Y-111102438D01*
X160488285Y-111102438D02*
X160393047Y-111054819D01*
X160393047Y-111054819D02*
X160154952Y-111054819D01*
X160154952Y-111054819D02*
X160059714Y-111102438D01*
X160059714Y-111102438D02*
X160012095Y-111150057D01*
X160012095Y-111150057D02*
X159964476Y-111245295D01*
X159964476Y-111245295D02*
X159964476Y-111340533D01*
X159964476Y-111340533D02*
X160012095Y-111483390D01*
X160012095Y-111483390D02*
X160583523Y-112054819D01*
X160583523Y-112054819D02*
X159964476Y-112054819D01*
X159583523Y-111150057D02*
X159535904Y-111102438D01*
X159535904Y-111102438D02*
X159440666Y-111054819D01*
X159440666Y-111054819D02*
X159202571Y-111054819D01*
X159202571Y-111054819D02*
X159107333Y-111102438D01*
X159107333Y-111102438D02*
X159059714Y-111150057D01*
X159059714Y-111150057D02*
X159012095Y-111245295D01*
X159012095Y-111245295D02*
X159012095Y-111340533D01*
X159012095Y-111340533D02*
X159059714Y-111483390D01*
X159059714Y-111483390D02*
X159631142Y-112054819D01*
X159631142Y-112054819D02*
X159012095Y-112054819D01*
X152026857Y-104054819D02*
X152360190Y-103578628D01*
X152598285Y-104054819D02*
X152598285Y-103054819D01*
X152598285Y-103054819D02*
X152217333Y-103054819D01*
X152217333Y-103054819D02*
X152122095Y-103102438D01*
X152122095Y-103102438D02*
X152074476Y-103150057D01*
X152074476Y-103150057D02*
X152026857Y-103245295D01*
X152026857Y-103245295D02*
X152026857Y-103388152D01*
X152026857Y-103388152D02*
X152074476Y-103483390D01*
X152074476Y-103483390D02*
X152122095Y-103531009D01*
X152122095Y-103531009D02*
X152217333Y-103578628D01*
X152217333Y-103578628D02*
X152598285Y-103578628D01*
X151074476Y-104054819D02*
X151645904Y-104054819D01*
X151360190Y-104054819D02*
X151360190Y-103054819D01*
X151360190Y-103054819D02*
X151455428Y-103197676D01*
X151455428Y-103197676D02*
X151550666Y-103292914D01*
X151550666Y-103292914D02*
X151645904Y-103340533D01*
X150741142Y-103054819D02*
X150074476Y-103054819D01*
X150074476Y-103054819D02*
X150503047Y-104054819D01*
X121401666Y-109054819D02*
X121734999Y-108578628D01*
X121973094Y-109054819D02*
X121973094Y-108054819D01*
X121973094Y-108054819D02*
X121592142Y-108054819D01*
X121592142Y-108054819D02*
X121496904Y-108102438D01*
X121496904Y-108102438D02*
X121449285Y-108150057D01*
X121449285Y-108150057D02*
X121401666Y-108245295D01*
X121401666Y-108245295D02*
X121401666Y-108388152D01*
X121401666Y-108388152D02*
X121449285Y-108483390D01*
X121449285Y-108483390D02*
X121496904Y-108531009D01*
X121496904Y-108531009D02*
X121592142Y-108578628D01*
X121592142Y-108578628D02*
X121973094Y-108578628D01*
X120496904Y-108054819D02*
X120973094Y-108054819D01*
X120973094Y-108054819D02*
X121020713Y-108531009D01*
X121020713Y-108531009D02*
X120973094Y-108483390D01*
X120973094Y-108483390D02*
X120877856Y-108435771D01*
X120877856Y-108435771D02*
X120639761Y-108435771D01*
X120639761Y-108435771D02*
X120544523Y-108483390D01*
X120544523Y-108483390D02*
X120496904Y-108531009D01*
X120496904Y-108531009D02*
X120449285Y-108626247D01*
X120449285Y-108626247D02*
X120449285Y-108864342D01*
X120449285Y-108864342D02*
X120496904Y-108959580D01*
X120496904Y-108959580D02*
X120544523Y-109007200D01*
X120544523Y-109007200D02*
X120639761Y-109054819D01*
X120639761Y-109054819D02*
X120877856Y-109054819D01*
X120877856Y-109054819D02*
X120973094Y-109007200D01*
X120973094Y-109007200D02*
X121020713Y-108959580D01*
X110370857Y-57190819D02*
X110704190Y-56714628D01*
X110942285Y-57190819D02*
X110942285Y-56190819D01*
X110942285Y-56190819D02*
X110561333Y-56190819D01*
X110561333Y-56190819D02*
X110466095Y-56238438D01*
X110466095Y-56238438D02*
X110418476Y-56286057D01*
X110418476Y-56286057D02*
X110370857Y-56381295D01*
X110370857Y-56381295D02*
X110370857Y-56524152D01*
X110370857Y-56524152D02*
X110418476Y-56619390D01*
X110418476Y-56619390D02*
X110466095Y-56667009D01*
X110466095Y-56667009D02*
X110561333Y-56714628D01*
X110561333Y-56714628D02*
X110942285Y-56714628D01*
X109418476Y-57190819D02*
X109989904Y-57190819D01*
X109704190Y-57190819D02*
X109704190Y-56190819D01*
X109704190Y-56190819D02*
X109799428Y-56333676D01*
X109799428Y-56333676D02*
X109894666Y-56428914D01*
X109894666Y-56428914D02*
X109989904Y-56476533D01*
X108799428Y-56190819D02*
X108704190Y-56190819D01*
X108704190Y-56190819D02*
X108608952Y-56238438D01*
X108608952Y-56238438D02*
X108561333Y-56286057D01*
X108561333Y-56286057D02*
X108513714Y-56381295D01*
X108513714Y-56381295D02*
X108466095Y-56571771D01*
X108466095Y-56571771D02*
X108466095Y-56809866D01*
X108466095Y-56809866D02*
X108513714Y-57000342D01*
X108513714Y-57000342D02*
X108561333Y-57095580D01*
X108561333Y-57095580D02*
X108608952Y-57143200D01*
X108608952Y-57143200D02*
X108704190Y-57190819D01*
X108704190Y-57190819D02*
X108799428Y-57190819D01*
X108799428Y-57190819D02*
X108894666Y-57143200D01*
X108894666Y-57143200D02*
X108942285Y-57095580D01*
X108942285Y-57095580D02*
X108989904Y-57000342D01*
X108989904Y-57000342D02*
X109037523Y-56809866D01*
X109037523Y-56809866D02*
X109037523Y-56571771D01*
X109037523Y-56571771D02*
X108989904Y-56381295D01*
X108989904Y-56381295D02*
X108942285Y-56286057D01*
X108942285Y-56286057D02*
X108894666Y-56238438D01*
X108894666Y-56238438D02*
X108799428Y-56190819D01*
X106592666Y-57254819D02*
X106925999Y-56778628D01*
X107164094Y-57254819D02*
X107164094Y-56254819D01*
X107164094Y-56254819D02*
X106783142Y-56254819D01*
X106783142Y-56254819D02*
X106687904Y-56302438D01*
X106687904Y-56302438D02*
X106640285Y-56350057D01*
X106640285Y-56350057D02*
X106592666Y-56445295D01*
X106592666Y-56445295D02*
X106592666Y-56588152D01*
X106592666Y-56588152D02*
X106640285Y-56683390D01*
X106640285Y-56683390D02*
X106687904Y-56731009D01*
X106687904Y-56731009D02*
X106783142Y-56778628D01*
X106783142Y-56778628D02*
X107164094Y-56778628D01*
X106116475Y-57254819D02*
X105925999Y-57254819D01*
X105925999Y-57254819D02*
X105830761Y-57207200D01*
X105830761Y-57207200D02*
X105783142Y-57159580D01*
X105783142Y-57159580D02*
X105687904Y-57016723D01*
X105687904Y-57016723D02*
X105640285Y-56826247D01*
X105640285Y-56826247D02*
X105640285Y-56445295D01*
X105640285Y-56445295D02*
X105687904Y-56350057D01*
X105687904Y-56350057D02*
X105735523Y-56302438D01*
X105735523Y-56302438D02*
X105830761Y-56254819D01*
X105830761Y-56254819D02*
X106021237Y-56254819D01*
X106021237Y-56254819D02*
X106116475Y-56302438D01*
X106116475Y-56302438D02*
X106164094Y-56350057D01*
X106164094Y-56350057D02*
X106211713Y-56445295D01*
X106211713Y-56445295D02*
X106211713Y-56683390D01*
X106211713Y-56683390D02*
X106164094Y-56778628D01*
X106164094Y-56778628D02*
X106116475Y-56826247D01*
X106116475Y-56826247D02*
X106021237Y-56873866D01*
X106021237Y-56873866D02*
X105830761Y-56873866D01*
X105830761Y-56873866D02*
X105735523Y-56826247D01*
X105735523Y-56826247D02*
X105687904Y-56778628D01*
X105687904Y-56778628D02*
X105640285Y-56683390D01*
X160916857Y-117134819D02*
X161250190Y-116658628D01*
X161488285Y-117134819D02*
X161488285Y-116134819D01*
X161488285Y-116134819D02*
X161107333Y-116134819D01*
X161107333Y-116134819D02*
X161012095Y-116182438D01*
X161012095Y-116182438D02*
X160964476Y-116230057D01*
X160964476Y-116230057D02*
X160916857Y-116325295D01*
X160916857Y-116325295D02*
X160916857Y-116468152D01*
X160916857Y-116468152D02*
X160964476Y-116563390D01*
X160964476Y-116563390D02*
X161012095Y-116611009D01*
X161012095Y-116611009D02*
X161107333Y-116658628D01*
X161107333Y-116658628D02*
X161488285Y-116658628D01*
X160535904Y-116230057D02*
X160488285Y-116182438D01*
X160488285Y-116182438D02*
X160393047Y-116134819D01*
X160393047Y-116134819D02*
X160154952Y-116134819D01*
X160154952Y-116134819D02*
X160059714Y-116182438D01*
X160059714Y-116182438D02*
X160012095Y-116230057D01*
X160012095Y-116230057D02*
X159964476Y-116325295D01*
X159964476Y-116325295D02*
X159964476Y-116420533D01*
X159964476Y-116420533D02*
X160012095Y-116563390D01*
X160012095Y-116563390D02*
X160583523Y-117134819D01*
X160583523Y-117134819D02*
X159964476Y-117134819D01*
X159631142Y-116134819D02*
X159012095Y-116134819D01*
X159012095Y-116134819D02*
X159345428Y-116515771D01*
X159345428Y-116515771D02*
X159202571Y-116515771D01*
X159202571Y-116515771D02*
X159107333Y-116563390D01*
X159107333Y-116563390D02*
X159059714Y-116611009D01*
X159059714Y-116611009D02*
X159012095Y-116706247D01*
X159012095Y-116706247D02*
X159012095Y-116944342D01*
X159012095Y-116944342D02*
X159059714Y-117039580D01*
X159059714Y-117039580D02*
X159107333Y-117087200D01*
X159107333Y-117087200D02*
X159202571Y-117134819D01*
X159202571Y-117134819D02*
X159488285Y-117134819D01*
X159488285Y-117134819D02*
X159583523Y-117087200D01*
X159583523Y-117087200D02*
X159631142Y-117039580D01*
X121800857Y-114914819D02*
X122134190Y-114438628D01*
X122372285Y-114914819D02*
X122372285Y-113914819D01*
X122372285Y-113914819D02*
X121991333Y-113914819D01*
X121991333Y-113914819D02*
X121896095Y-113962438D01*
X121896095Y-113962438D02*
X121848476Y-114010057D01*
X121848476Y-114010057D02*
X121800857Y-114105295D01*
X121800857Y-114105295D02*
X121800857Y-114248152D01*
X121800857Y-114248152D02*
X121848476Y-114343390D01*
X121848476Y-114343390D02*
X121896095Y-114391009D01*
X121896095Y-114391009D02*
X121991333Y-114438628D01*
X121991333Y-114438628D02*
X122372285Y-114438628D01*
X120848476Y-114914819D02*
X121419904Y-114914819D01*
X121134190Y-114914819D02*
X121134190Y-113914819D01*
X121134190Y-113914819D02*
X121229428Y-114057676D01*
X121229428Y-114057676D02*
X121324666Y-114152914D01*
X121324666Y-114152914D02*
X121419904Y-114200533D01*
X120515142Y-113914819D02*
X119896095Y-113914819D01*
X119896095Y-113914819D02*
X120229428Y-114295771D01*
X120229428Y-114295771D02*
X120086571Y-114295771D01*
X120086571Y-114295771D02*
X119991333Y-114343390D01*
X119991333Y-114343390D02*
X119943714Y-114391009D01*
X119943714Y-114391009D02*
X119896095Y-114486247D01*
X119896095Y-114486247D02*
X119896095Y-114724342D01*
X119896095Y-114724342D02*
X119943714Y-114819580D01*
X119943714Y-114819580D02*
X119991333Y-114867200D01*
X119991333Y-114867200D02*
X120086571Y-114914819D01*
X120086571Y-114914819D02*
X120372285Y-114914819D01*
X120372285Y-114914819D02*
X120467523Y-114867200D01*
X120467523Y-114867200D02*
X120515142Y-114819580D01*
X152242857Y-117054819D02*
X152576190Y-116578628D01*
X152814285Y-117054819D02*
X152814285Y-116054819D01*
X152814285Y-116054819D02*
X152433333Y-116054819D01*
X152433333Y-116054819D02*
X152338095Y-116102438D01*
X152338095Y-116102438D02*
X152290476Y-116150057D01*
X152290476Y-116150057D02*
X152242857Y-116245295D01*
X152242857Y-116245295D02*
X152242857Y-116388152D01*
X152242857Y-116388152D02*
X152290476Y-116483390D01*
X152290476Y-116483390D02*
X152338095Y-116531009D01*
X152338095Y-116531009D02*
X152433333Y-116578628D01*
X152433333Y-116578628D02*
X152814285Y-116578628D01*
X151861904Y-116150057D02*
X151814285Y-116102438D01*
X151814285Y-116102438D02*
X151719047Y-116054819D01*
X151719047Y-116054819D02*
X151480952Y-116054819D01*
X151480952Y-116054819D02*
X151385714Y-116102438D01*
X151385714Y-116102438D02*
X151338095Y-116150057D01*
X151338095Y-116150057D02*
X151290476Y-116245295D01*
X151290476Y-116245295D02*
X151290476Y-116340533D01*
X151290476Y-116340533D02*
X151338095Y-116483390D01*
X151338095Y-116483390D02*
X151909523Y-117054819D01*
X151909523Y-117054819D02*
X151290476Y-117054819D01*
X150338095Y-117054819D02*
X150909523Y-117054819D01*
X150623809Y-117054819D02*
X150623809Y-116054819D01*
X150623809Y-116054819D02*
X150719047Y-116197676D01*
X150719047Y-116197676D02*
X150814285Y-116292914D01*
X150814285Y-116292914D02*
X150909523Y-116340533D01*
X121401666Y-106786819D02*
X121734999Y-106310628D01*
X121973094Y-106786819D02*
X121973094Y-105786819D01*
X121973094Y-105786819D02*
X121592142Y-105786819D01*
X121592142Y-105786819D02*
X121496904Y-105834438D01*
X121496904Y-105834438D02*
X121449285Y-105882057D01*
X121449285Y-105882057D02*
X121401666Y-105977295D01*
X121401666Y-105977295D02*
X121401666Y-106120152D01*
X121401666Y-106120152D02*
X121449285Y-106215390D01*
X121449285Y-106215390D02*
X121496904Y-106263009D01*
X121496904Y-106263009D02*
X121592142Y-106310628D01*
X121592142Y-106310628D02*
X121973094Y-106310628D01*
X120544523Y-106120152D02*
X120544523Y-106786819D01*
X120782618Y-105739200D02*
X121020713Y-106453485D01*
X121020713Y-106453485D02*
X120401666Y-106453485D01*
X130291666Y-115054819D02*
X130624999Y-114578628D01*
X130863094Y-115054819D02*
X130863094Y-114054819D01*
X130863094Y-114054819D02*
X130482142Y-114054819D01*
X130482142Y-114054819D02*
X130386904Y-114102438D01*
X130386904Y-114102438D02*
X130339285Y-114150057D01*
X130339285Y-114150057D02*
X130291666Y-114245295D01*
X130291666Y-114245295D02*
X130291666Y-114388152D01*
X130291666Y-114388152D02*
X130339285Y-114483390D01*
X130339285Y-114483390D02*
X130386904Y-114531009D01*
X130386904Y-114531009D02*
X130482142Y-114578628D01*
X130482142Y-114578628D02*
X130863094Y-114578628D01*
X129720237Y-114483390D02*
X129815475Y-114435771D01*
X129815475Y-114435771D02*
X129863094Y-114388152D01*
X129863094Y-114388152D02*
X129910713Y-114292914D01*
X129910713Y-114292914D02*
X129910713Y-114245295D01*
X129910713Y-114245295D02*
X129863094Y-114150057D01*
X129863094Y-114150057D02*
X129815475Y-114102438D01*
X129815475Y-114102438D02*
X129720237Y-114054819D01*
X129720237Y-114054819D02*
X129529761Y-114054819D01*
X129529761Y-114054819D02*
X129434523Y-114102438D01*
X129434523Y-114102438D02*
X129386904Y-114150057D01*
X129386904Y-114150057D02*
X129339285Y-114245295D01*
X129339285Y-114245295D02*
X129339285Y-114292914D01*
X129339285Y-114292914D02*
X129386904Y-114388152D01*
X129386904Y-114388152D02*
X129434523Y-114435771D01*
X129434523Y-114435771D02*
X129529761Y-114483390D01*
X129529761Y-114483390D02*
X129720237Y-114483390D01*
X129720237Y-114483390D02*
X129815475Y-114531009D01*
X129815475Y-114531009D02*
X129863094Y-114578628D01*
X129863094Y-114578628D02*
X129910713Y-114673866D01*
X129910713Y-114673866D02*
X129910713Y-114864342D01*
X129910713Y-114864342D02*
X129863094Y-114959580D01*
X129863094Y-114959580D02*
X129815475Y-115007200D01*
X129815475Y-115007200D02*
X129720237Y-115054819D01*
X129720237Y-115054819D02*
X129529761Y-115054819D01*
X129529761Y-115054819D02*
X129434523Y-115007200D01*
X129434523Y-115007200D02*
X129386904Y-114959580D01*
X129386904Y-114959580D02*
X129339285Y-114864342D01*
X129339285Y-114864342D02*
X129339285Y-114673866D01*
X129339285Y-114673866D02*
X129386904Y-114578628D01*
X129386904Y-114578628D02*
X129434523Y-114531009D01*
X129434523Y-114531009D02*
X129529761Y-114483390D01*
X160916857Y-103926819D02*
X161250190Y-103450628D01*
X161488285Y-103926819D02*
X161488285Y-102926819D01*
X161488285Y-102926819D02*
X161107333Y-102926819D01*
X161107333Y-102926819D02*
X161012095Y-102974438D01*
X161012095Y-102974438D02*
X160964476Y-103022057D01*
X160964476Y-103022057D02*
X160916857Y-103117295D01*
X160916857Y-103117295D02*
X160916857Y-103260152D01*
X160916857Y-103260152D02*
X160964476Y-103355390D01*
X160964476Y-103355390D02*
X161012095Y-103403009D01*
X161012095Y-103403009D02*
X161107333Y-103450628D01*
X161107333Y-103450628D02*
X161488285Y-103450628D01*
X159964476Y-103926819D02*
X160535904Y-103926819D01*
X160250190Y-103926819D02*
X160250190Y-102926819D01*
X160250190Y-102926819D02*
X160345428Y-103069676D01*
X160345428Y-103069676D02*
X160440666Y-103164914D01*
X160440666Y-103164914D02*
X160535904Y-103212533D01*
X159059714Y-102926819D02*
X159535904Y-102926819D01*
X159535904Y-102926819D02*
X159583523Y-103403009D01*
X159583523Y-103403009D02*
X159535904Y-103355390D01*
X159535904Y-103355390D02*
X159440666Y-103307771D01*
X159440666Y-103307771D02*
X159202571Y-103307771D01*
X159202571Y-103307771D02*
X159107333Y-103355390D01*
X159107333Y-103355390D02*
X159059714Y-103403009D01*
X159059714Y-103403009D02*
X159012095Y-103498247D01*
X159012095Y-103498247D02*
X159012095Y-103736342D01*
X159012095Y-103736342D02*
X159059714Y-103831580D01*
X159059714Y-103831580D02*
X159107333Y-103879200D01*
X159107333Y-103879200D02*
X159202571Y-103926819D01*
X159202571Y-103926819D02*
X159440666Y-103926819D01*
X159440666Y-103926819D02*
X159535904Y-103879200D01*
X159535904Y-103879200D02*
X159583523Y-103831580D01*
X121927857Y-117054819D02*
X122261190Y-116578628D01*
X122499285Y-117054819D02*
X122499285Y-116054819D01*
X122499285Y-116054819D02*
X122118333Y-116054819D01*
X122118333Y-116054819D02*
X122023095Y-116102438D01*
X122023095Y-116102438D02*
X121975476Y-116150057D01*
X121975476Y-116150057D02*
X121927857Y-116245295D01*
X121927857Y-116245295D02*
X121927857Y-116388152D01*
X121927857Y-116388152D02*
X121975476Y-116483390D01*
X121975476Y-116483390D02*
X122023095Y-116531009D01*
X122023095Y-116531009D02*
X122118333Y-116578628D01*
X122118333Y-116578628D02*
X122499285Y-116578628D01*
X120975476Y-117054819D02*
X121546904Y-117054819D01*
X121261190Y-117054819D02*
X121261190Y-116054819D01*
X121261190Y-116054819D02*
X121356428Y-116197676D01*
X121356428Y-116197676D02*
X121451666Y-116292914D01*
X121451666Y-116292914D02*
X121546904Y-116340533D01*
X120118333Y-116388152D02*
X120118333Y-117054819D01*
X120356428Y-116007200D02*
X120594523Y-116721485D01*
X120594523Y-116721485D02*
X119975476Y-116721485D01*
X130291666Y-106854819D02*
X130624999Y-106378628D01*
X130863094Y-106854819D02*
X130863094Y-105854819D01*
X130863094Y-105854819D02*
X130482142Y-105854819D01*
X130482142Y-105854819D02*
X130386904Y-105902438D01*
X130386904Y-105902438D02*
X130339285Y-105950057D01*
X130339285Y-105950057D02*
X130291666Y-106045295D01*
X130291666Y-106045295D02*
X130291666Y-106188152D01*
X130291666Y-106188152D02*
X130339285Y-106283390D01*
X130339285Y-106283390D02*
X130386904Y-106331009D01*
X130386904Y-106331009D02*
X130482142Y-106378628D01*
X130482142Y-106378628D02*
X130863094Y-106378628D01*
X129434523Y-105854819D02*
X129624999Y-105854819D01*
X129624999Y-105854819D02*
X129720237Y-105902438D01*
X129720237Y-105902438D02*
X129767856Y-105950057D01*
X129767856Y-105950057D02*
X129863094Y-106092914D01*
X129863094Y-106092914D02*
X129910713Y-106283390D01*
X129910713Y-106283390D02*
X129910713Y-106664342D01*
X129910713Y-106664342D02*
X129863094Y-106759580D01*
X129863094Y-106759580D02*
X129815475Y-106807200D01*
X129815475Y-106807200D02*
X129720237Y-106854819D01*
X129720237Y-106854819D02*
X129529761Y-106854819D01*
X129529761Y-106854819D02*
X129434523Y-106807200D01*
X129434523Y-106807200D02*
X129386904Y-106759580D01*
X129386904Y-106759580D02*
X129339285Y-106664342D01*
X129339285Y-106664342D02*
X129339285Y-106426247D01*
X129339285Y-106426247D02*
X129386904Y-106331009D01*
X129386904Y-106331009D02*
X129434523Y-106283390D01*
X129434523Y-106283390D02*
X129529761Y-106235771D01*
X129529761Y-106235771D02*
X129720237Y-106235771D01*
X129720237Y-106235771D02*
X129815475Y-106283390D01*
X129815475Y-106283390D02*
X129863094Y-106331009D01*
X129863094Y-106331009D02*
X129910713Y-106426247D01*
X160916857Y-109006819D02*
X161250190Y-108530628D01*
X161488285Y-109006819D02*
X161488285Y-108006819D01*
X161488285Y-108006819D02*
X161107333Y-108006819D01*
X161107333Y-108006819D02*
X161012095Y-108054438D01*
X161012095Y-108054438D02*
X160964476Y-108102057D01*
X160964476Y-108102057D02*
X160916857Y-108197295D01*
X160916857Y-108197295D02*
X160916857Y-108340152D01*
X160916857Y-108340152D02*
X160964476Y-108435390D01*
X160964476Y-108435390D02*
X161012095Y-108483009D01*
X161012095Y-108483009D02*
X161107333Y-108530628D01*
X161107333Y-108530628D02*
X161488285Y-108530628D01*
X159964476Y-109006819D02*
X160535904Y-109006819D01*
X160250190Y-109006819D02*
X160250190Y-108006819D01*
X160250190Y-108006819D02*
X160345428Y-108149676D01*
X160345428Y-108149676D02*
X160440666Y-108244914D01*
X160440666Y-108244914D02*
X160535904Y-108292533D01*
X159107333Y-108006819D02*
X159297809Y-108006819D01*
X159297809Y-108006819D02*
X159393047Y-108054438D01*
X159393047Y-108054438D02*
X159440666Y-108102057D01*
X159440666Y-108102057D02*
X159535904Y-108244914D01*
X159535904Y-108244914D02*
X159583523Y-108435390D01*
X159583523Y-108435390D02*
X159583523Y-108816342D01*
X159583523Y-108816342D02*
X159535904Y-108911580D01*
X159535904Y-108911580D02*
X159488285Y-108959200D01*
X159488285Y-108959200D02*
X159393047Y-109006819D01*
X159393047Y-109006819D02*
X159202571Y-109006819D01*
X159202571Y-109006819D02*
X159107333Y-108959200D01*
X159107333Y-108959200D02*
X159059714Y-108911580D01*
X159059714Y-108911580D02*
X159012095Y-108816342D01*
X159012095Y-108816342D02*
X159012095Y-108578247D01*
X159012095Y-108578247D02*
X159059714Y-108483009D01*
X159059714Y-108483009D02*
X159107333Y-108435390D01*
X159107333Y-108435390D02*
X159202571Y-108387771D01*
X159202571Y-108387771D02*
X159393047Y-108387771D01*
X159393047Y-108387771D02*
X159488285Y-108435390D01*
X159488285Y-108435390D02*
X159535904Y-108483009D01*
X159535904Y-108483009D02*
X159583523Y-108578247D01*
X130767857Y-117134819D02*
X131101190Y-116658628D01*
X131339285Y-117134819D02*
X131339285Y-116134819D01*
X131339285Y-116134819D02*
X130958333Y-116134819D01*
X130958333Y-116134819D02*
X130863095Y-116182438D01*
X130863095Y-116182438D02*
X130815476Y-116230057D01*
X130815476Y-116230057D02*
X130767857Y-116325295D01*
X130767857Y-116325295D02*
X130767857Y-116468152D01*
X130767857Y-116468152D02*
X130815476Y-116563390D01*
X130815476Y-116563390D02*
X130863095Y-116611009D01*
X130863095Y-116611009D02*
X130958333Y-116658628D01*
X130958333Y-116658628D02*
X131339285Y-116658628D01*
X129815476Y-117134819D02*
X130386904Y-117134819D01*
X130101190Y-117134819D02*
X130101190Y-116134819D01*
X130101190Y-116134819D02*
X130196428Y-116277676D01*
X130196428Y-116277676D02*
X130291666Y-116372914D01*
X130291666Y-116372914D02*
X130386904Y-116420533D01*
X128863095Y-117134819D02*
X129434523Y-117134819D01*
X129148809Y-117134819D02*
X129148809Y-116134819D01*
X129148809Y-116134819D02*
X129244047Y-116277676D01*
X129244047Y-116277676D02*
X129339285Y-116372914D01*
X129339285Y-116372914D02*
X129434523Y-116420533D01*
D12*
X151638724Y-112507500D02*
X151129276Y-112507500D01*
X151638724Y-113552500D02*
X151129276Y-113552500D01*
X129870276Y-110983500D02*
X130379724Y-110983500D01*
X129870276Y-112028500D02*
X130379724Y-112028500D01*
X151638724Y-110983500D02*
X151129276Y-110983500D01*
X151638724Y-112028500D02*
X151129276Y-112028500D01*
X160019276Y-112507500D02*
X160528724Y-112507500D01*
X160019276Y-113552500D02*
X160528724Y-113552500D01*
X151638724Y-104379500D02*
X151129276Y-104379500D01*
X151638724Y-105424500D02*
X151129276Y-105424500D01*
X121489724Y-109459500D02*
X120980276Y-109459500D01*
X121489724Y-110504500D02*
X120980276Y-110504500D01*
X109473276Y-57643500D02*
X109982724Y-57643500D01*
X109473276Y-58688500D02*
X109982724Y-58688500D01*
X106680724Y-57643500D02*
X106171276Y-57643500D01*
X106680724Y-58688500D02*
X106171276Y-58688500D01*
X160019276Y-117587500D02*
X160528724Y-117587500D01*
X160019276Y-118632500D02*
X160528724Y-118632500D01*
X121412724Y-112507500D02*
X120903276Y-112507500D01*
X121412724Y-113552500D02*
X120903276Y-113552500D01*
X151638724Y-117587500D02*
X151129276Y-117587500D01*
X151638724Y-118632500D02*
X151129276Y-118632500D01*
X121489724Y-104379500D02*
X120980276Y-104379500D01*
X121489724Y-105424500D02*
X120980276Y-105424500D01*
X129870276Y-112507500D02*
X130379724Y-112507500D01*
X129870276Y-113552500D02*
X130379724Y-113552500D01*
X160019276Y-104379500D02*
X160528724Y-104379500D01*
X160019276Y-105424500D02*
X160528724Y-105424500D01*
X121539724Y-117587500D02*
X121030276Y-117587500D01*
X121539724Y-118632500D02*
X121030276Y-118632500D01*
X129870276Y-104379500D02*
X130379724Y-104379500D01*
X129870276Y-105424500D02*
X130379724Y-105424500D01*
X160019276Y-109459500D02*
X160528724Y-109459500D01*
X160019276Y-110504500D02*
X160528724Y-110504500D01*
X129870276Y-117587500D02*
X130379724Y-117587500D01*
X129870276Y-118632500D02*
X130379724Y-118632500D01*
%LPC*%
D13*
X122000000Y-32000000D03*
X181000000Y-115000000D03*
D14*
X114430000Y-75923600D03*
X114430000Y-78463600D03*
X111890000Y-75923600D03*
X111890000Y-78463600D03*
X109350000Y-75923600D03*
X109350000Y-78463600D03*
X106810000Y-75923600D03*
X106810000Y-78463600D03*
X104270000Y-75923600D03*
X104270000Y-78463600D03*
X101730000Y-75923600D03*
X101730000Y-78463600D03*
X99190000Y-75923600D03*
X99190000Y-78463600D03*
X96650000Y-75923600D03*
X96650000Y-78463600D03*
X94110000Y-75923600D03*
X94110000Y-78463600D03*
X91570000Y-75923600D03*
X91570000Y-78463600D03*
X114430000Y-101323600D03*
X114430000Y-103863600D03*
X111890000Y-101323600D03*
X111890000Y-103863600D03*
X109350000Y-101323600D03*
X109350000Y-103863600D03*
X106810000Y-101323600D03*
X106810000Y-103863600D03*
X104270000Y-101323600D03*
X104270000Y-103863600D03*
X101730000Y-101323600D03*
X101730000Y-103863600D03*
X99190000Y-101323600D03*
X99190000Y-103863600D03*
X96650000Y-101323600D03*
X96650000Y-103863600D03*
X94110000Y-101323600D03*
X94110000Y-103863600D03*
X91570000Y-101323600D03*
X91570000Y-103863600D03*
D15*
X132080000Y-109240000D03*
D16*
X134080000Y-109240000D03*
X136080000Y-109240000D03*
X138080000Y-109240000D03*
D17*
X145838000Y-49308000D03*
D18*
X145838000Y-51308000D03*
D19*
X93975000Y-81879600D03*
D20*
X96515000Y-81879600D03*
D15*
X80010000Y-116290000D03*
D16*
X82010000Y-116290000D03*
D15*
X113015000Y-116290000D03*
D16*
X115015000Y-116290000D03*
X117015000Y-116290000D03*
X119015000Y-116290000D03*
D15*
X97125000Y-116290000D03*
D16*
X99125000Y-116290000D03*
X101125000Y-116290000D03*
X103125000Y-116290000D03*
X105125000Y-116290000D03*
X107125000Y-116290000D03*
D15*
X70000000Y-116290000D03*
D16*
X72000000Y-116290000D03*
X74000000Y-116290000D03*
D15*
X143510000Y-109290000D03*
D16*
X145510000Y-109290000D03*
X147510000Y-109290000D03*
X149510000Y-109290000D03*
D21*
X161820000Y-32182500D03*
X161820000Y-28382500D03*
X153180000Y-32182500D03*
X153180000Y-28382500D03*
D15*
X84000000Y-29000000D03*
D16*
X86000000Y-29000000D03*
X88000000Y-29000000D03*
D19*
X93975000Y-47244000D03*
D20*
X96515000Y-47244000D03*
D15*
X112000000Y-29000000D03*
D16*
X114000000Y-29000000D03*
X116000000Y-29000000D03*
D17*
X145838000Y-62000000D03*
D18*
X145838000Y-64000000D03*
D15*
X70000000Y-108290000D03*
D16*
X72000000Y-108290000D03*
X74000000Y-108290000D03*
D15*
X98000000Y-36000000D03*
D16*
X100000000Y-36000000D03*
X102000000Y-36000000D03*
D15*
X132080000Y-116240000D03*
D16*
X134080000Y-116240000D03*
X136080000Y-116240000D03*
X138080000Y-116240000D03*
D19*
X124206000Y-118120000D03*
D20*
X124206000Y-115580000D03*
X124206000Y-113040000D03*
D19*
X78500000Y-96660000D03*
D20*
X78500000Y-94120000D03*
X78500000Y-91580000D03*
X78500000Y-89040000D03*
X78500000Y-86500000D03*
X78500000Y-83960000D03*
X78500000Y-81420000D03*
X78500000Y-78880000D03*
X78500000Y-76340000D03*
X78500000Y-73800000D03*
D17*
X145838000Y-91100000D03*
D18*
X145838000Y-93100000D03*
D22*
X171792000Y-36500000D03*
X185292000Y-36500000D03*
D23*
X174942000Y-42500000D03*
D24*
X182142000Y-42500000D03*
D14*
X114360000Y-41530000D03*
X114360000Y-44070000D03*
X111820000Y-41530000D03*
X111820000Y-44070000D03*
X109280000Y-41530000D03*
X109280000Y-44070000D03*
X106740000Y-41530000D03*
X106740000Y-44070000D03*
X104200000Y-41530000D03*
X104200000Y-44070000D03*
X101660000Y-41530000D03*
X101660000Y-44070000D03*
X99120000Y-41530000D03*
X99120000Y-44070000D03*
X96580000Y-41530000D03*
X96580000Y-44070000D03*
X94040000Y-41530000D03*
X94040000Y-44070000D03*
X91500000Y-41530000D03*
X91500000Y-44070000D03*
X114360000Y-66930000D03*
X114360000Y-69470000D03*
X111820000Y-66930000D03*
X111820000Y-69470000D03*
X109280000Y-66930000D03*
X109280000Y-69470000D03*
X106740000Y-66930000D03*
X106740000Y-69470000D03*
X104200000Y-66930000D03*
X104200000Y-69470000D03*
X101660000Y-66930000D03*
X101660000Y-69470000D03*
X99120000Y-66930000D03*
X99120000Y-69470000D03*
X96580000Y-66930000D03*
X96580000Y-69470000D03*
X94040000Y-66930000D03*
X94040000Y-69470000D03*
X91500000Y-66930000D03*
X91500000Y-69470000D03*
D15*
X163370000Y-109290000D03*
D16*
X165370000Y-109290000D03*
X167370000Y-109290000D03*
X169370000Y-109290000D03*
D15*
X84000000Y-36000000D03*
D16*
X86000000Y-36000000D03*
X88000000Y-36000000D03*
D19*
X154381200Y-118110000D03*
D20*
X154381200Y-115570000D03*
X154381200Y-113030000D03*
D25*
X78500000Y-56200000D03*
X78500000Y-69000000D03*
D17*
X152838000Y-47808000D03*
D18*
X152838000Y-49808000D03*
X152838000Y-51808000D03*
X152838000Y-53808000D03*
D19*
X169199800Y-104648000D03*
D20*
X166659800Y-104648000D03*
X164119800Y-104648000D03*
D19*
X127006400Y-118110000D03*
D20*
X127006400Y-115570000D03*
X127006400Y-113030000D03*
D15*
X112000000Y-36000000D03*
D16*
X114000000Y-36000000D03*
X116000000Y-36000000D03*
D19*
X154381200Y-109992000D03*
D20*
X154381200Y-107452000D03*
X154381200Y-104912000D03*
D19*
X124187000Y-109982000D03*
D20*
X124187000Y-107442000D03*
X124187000Y-104902000D03*
D15*
X145320000Y-28914000D03*
D16*
X147320000Y-28914000D03*
D19*
X135392000Y-102108000D03*
D20*
X132852000Y-102108000D03*
X130312000Y-102108000D03*
D15*
X163370000Y-116290000D03*
D16*
X165370000Y-116290000D03*
X167370000Y-116290000D03*
X169370000Y-116290000D03*
D15*
X143510000Y-116290000D03*
D16*
X145510000Y-116290000D03*
X147510000Y-116290000D03*
X149510000Y-116290000D03*
D15*
X113015000Y-109290000D03*
D16*
X115015000Y-109290000D03*
X117015000Y-109290000D03*
X119015000Y-109290000D03*
D15*
X70000000Y-29000000D03*
D16*
X72000000Y-29000000D03*
X74000000Y-29000000D03*
D17*
X145888000Y-76216000D03*
D18*
X145888000Y-78216000D03*
D15*
X98000000Y-29000000D03*
D16*
X100000000Y-29000000D03*
X102000000Y-29000000D03*
D13*
X75000000Y-102000000D03*
D15*
X88615000Y-116290000D03*
D16*
X90615000Y-116290000D03*
D19*
X127000000Y-109982000D03*
D20*
X127000000Y-107442000D03*
X127000000Y-104902000D03*
D17*
X152838000Y-74216000D03*
D18*
X152838000Y-76216000D03*
X152838000Y-78216000D03*
X152838000Y-80216000D03*
D17*
X152838000Y-89000000D03*
D18*
X152838000Y-91000000D03*
X152838000Y-93000000D03*
X152838000Y-95000000D03*
D15*
X134620000Y-28956000D03*
D16*
X136620000Y-28956000D03*
X138620000Y-28956000D03*
D15*
X70000000Y-36000000D03*
D16*
X72000000Y-36000000D03*
X74000000Y-36000000D03*
D19*
X106172000Y-60955000D03*
D20*
X106172000Y-63495000D03*
D19*
X157226000Y-109982000D03*
D20*
X157226000Y-107442000D03*
X157226000Y-104902000D03*
D19*
X109982000Y-60955000D03*
D20*
X109982000Y-63495000D03*
D17*
X152838000Y-60500000D03*
D18*
X152838000Y-62500000D03*
X152838000Y-64500000D03*
X152838000Y-66500000D03*
D19*
X157226000Y-118110000D03*
D20*
X157226000Y-115570000D03*
X157226000Y-113030000D03*
D26*
X150471500Y-113030000D03*
X152296500Y-113030000D03*
D27*
X131037500Y-111506000D03*
X129212500Y-111506000D03*
D26*
X150471500Y-111506000D03*
X152296500Y-111506000D03*
D27*
X161186500Y-113030000D03*
X159361500Y-113030000D03*
D26*
X150471500Y-104902000D03*
X152296500Y-104902000D03*
X120322500Y-109982000D03*
X122147500Y-109982000D03*
D27*
X110640500Y-58166000D03*
X108815500Y-58166000D03*
D26*
X105513500Y-58166000D03*
X107338500Y-58166000D03*
D27*
X161186500Y-118110000D03*
X159361500Y-118110000D03*
D26*
X120245500Y-113030000D03*
X122070500Y-113030000D03*
X150471500Y-118110000D03*
X152296500Y-118110000D03*
X120322500Y-104902000D03*
X122147500Y-104902000D03*
D27*
X131037500Y-113030000D03*
X129212500Y-113030000D03*
X161186500Y-104902000D03*
X159361500Y-104902000D03*
D26*
X120372500Y-118110000D03*
X122197500Y-118110000D03*
D27*
X131037500Y-104902000D03*
X129212500Y-104902000D03*
X161186500Y-109982000D03*
X159361500Y-109982000D03*
X131037500Y-118110000D03*
X129212500Y-118110000D03*
%LPD*%
M02*
