G04 #@! TF.GenerationSoftware,KiCad,Pcbnew,8.0.5*
G04 #@! TF.CreationDate,2024-10-28T15:03:54+01:00*
G04 #@! TF.ProjectId,Aurelia-robotics-PCB,41757265-6c69-4612-9d72-6f626f746963,rev?*
G04 #@! TF.SameCoordinates,Original*
G04 #@! TF.FileFunction,Soldermask,Top*
G04 #@! TF.FilePolarity,Negative*
%FSLAX46Y46*%
G04 Gerber Fmt 4.6, Leading zero omitted, Abs format (unit mm)*
G04 Created by KiCad (PCBNEW 8.0.5) date 2024-10-28 15:03:54*
%MOMM*%
%LPD*%
G01*
G04 APERTURE LIST*
G04 Aperture macros list*
%AMRoundRect*
0 Rectangle with rounded corners*
0 $1 Rounding radius*
0 $2 $3 $4 $5 $6 $7 $8 $9 X,Y pos of 4 corners*
0 Add a 4 corners polygon primitive as box body*
4,1,4,$2,$3,$4,$5,$6,$7,$8,$9,$2,$3,0*
0 Add four circle primitives for the rounded corners*
1,1,$1+$1,$2,$3*
1,1,$1+$1,$4,$5*
1,1,$1+$1,$6,$7*
1,1,$1+$1,$8,$9*
0 Add four rect primitives between the rounded corners*
20,1,$1+$1,$2,$3,$4,$5,0*
20,1,$1+$1,$4,$5,$6,$7,0*
20,1,$1+$1,$6,$7,$8,$9,0*
20,1,$1+$1,$8,$9,$2,$3,0*%
%AMFreePoly0*
4,1,5,0.279400,-0.901601,-0.279400,-0.901601,-0.279400,0.101600,0.279400,0.101600,0.279400,-0.901601,0.279400,-0.901601,$1*%
%AMFreePoly1*
4,1,5,0.279400,-0.101600,-0.279400,-0.101600,-0.279400,0.901601,0.279400,0.901601,0.279400,-0.101600,0.279400,-0.101600,$1*%
%AMFreePoly2*
4,1,5,0.279400,-0.101600,-0.279400,-0.101600,-0.279400,0.501599,0.279400,0.501599,0.279400,-0.101600,0.279400,-0.101600,$1*%
G04 Aperture macros list end*
%ADD10RoundRect,0.237500X0.237500X-0.250000X0.237500X0.250000X-0.237500X0.250000X-0.237500X-0.250000X0*%
%ADD11RoundRect,0.225000X-0.225000X-0.375000X0.225000X-0.375000X0.225000X0.375000X-0.225000X0.375000X0*%
%ADD12C,3.200000*%
%ADD13R,0.228600X0.711200*%
%ADD14RoundRect,0.237500X-0.237500X0.250000X-0.237500X-0.250000X0.237500X-0.250000X0.237500X0.250000X0*%
%ADD15RoundRect,0.237500X0.250000X0.237500X-0.250000X0.237500X-0.250000X-0.237500X0.250000X-0.237500X0*%
%ADD16RoundRect,0.237500X0.300000X0.237500X-0.300000X0.237500X-0.300000X-0.237500X0.300000X-0.237500X0*%
%ADD17RoundRect,0.237500X-0.250000X-0.237500X0.250000X-0.237500X0.250000X0.237500X-0.250000X0.237500X0*%
%ADD18RoundRect,0.237500X-0.300000X-0.237500X0.300000X-0.237500X0.300000X0.237500X-0.300000X0.237500X0*%
%ADD19RoundRect,0.237500X0.237500X-0.300000X0.237500X0.300000X-0.237500X0.300000X-0.237500X-0.300000X0*%
%ADD20C,1.400000*%
%ADD21RoundRect,0.237500X0.237500X-0.287500X0.237500X0.287500X-0.237500X0.287500X-0.237500X-0.287500X0*%
%ADD22RoundRect,0.250000X-0.350000X-0.625000X0.350000X-0.625000X0.350000X0.625000X-0.350000X0.625000X0*%
%ADD23O,1.200000X1.750000*%
%ADD24R,0.533400X1.460500*%
%ADD25R,3.099999X2.400000*%
%ADD26RoundRect,0.250000X-0.625000X0.350000X-0.625000X-0.350000X0.625000X-0.350000X0.625000X0.350000X0*%
%ADD27O,1.750000X1.200000*%
%ADD28RoundRect,0.250000X1.000000X0.650000X-1.000000X0.650000X-1.000000X-0.650000X1.000000X-0.650000X0*%
%ADD29RoundRect,0.250000X0.650000X-1.000000X0.650000X1.000000X-0.650000X1.000000X-0.650000X-1.000000X0*%
%ADD30R,1.700000X1.700000*%
%ADD31O,1.700000X1.700000*%
%ADD32RoundRect,0.237500X-0.237500X0.300000X-0.237500X-0.300000X0.237500X-0.300000X0.237500X0.300000X0*%
%ADD33RoundRect,0.150000X-0.512500X-0.150000X0.512500X-0.150000X0.512500X0.150000X-0.512500X0.150000X0*%
%ADD34RoundRect,0.150000X0.587500X0.150000X-0.587500X0.150000X-0.587500X-0.150000X0.587500X-0.150000X0*%
%ADD35RoundRect,0.175000X0.175000X0.425000X-0.175000X0.425000X-0.175000X-0.425000X0.175000X-0.425000X0*%
%ADD36RoundRect,0.200000X0.200000X0.400000X-0.200000X0.400000X-0.200000X-0.400000X0.200000X-0.400000X0*%
%ADD37RoundRect,0.225000X0.225000X0.375000X-0.225000X0.375000X-0.225000X-0.375000X0.225000X-0.375000X0*%
%ADD38O,1.000000X1.700000*%
%ADD39RoundRect,0.250000X-0.400000X-0.600000X0.400000X-0.600000X0.400000X0.600000X-0.400000X0.600000X0*%
%ADD40RoundRect,0.150000X0.150000X-0.587500X0.150000X0.587500X-0.150000X0.587500X-0.150000X-0.587500X0*%
%ADD41RoundRect,0.250000X0.337500X0.475000X-0.337500X0.475000X-0.337500X-0.475000X0.337500X-0.475000X0*%
%ADD42RoundRect,0.250000X-0.412500X-1.100000X0.412500X-1.100000X0.412500X1.100000X-0.412500X1.100000X0*%
%ADD43R,1.676400X0.355600*%
%ADD44RoundRect,0.250000X0.475000X-0.337500X0.475000X0.337500X-0.475000X0.337500X-0.475000X-0.337500X0*%
%ADD45R,3.050000X2.550000*%
%ADD46RoundRect,0.237500X-0.287500X-0.237500X0.287500X-0.237500X0.287500X0.237500X-0.287500X0.237500X0*%
%ADD47RoundRect,0.250000X-0.850000X-0.350000X0.850000X-0.350000X0.850000X0.350000X-0.850000X0.350000X0*%
%ADD48RoundRect,0.249997X-2.950003X-2.650003X2.950003X-2.650003X2.950003X2.650003X-2.950003X2.650003X0*%
%ADD49RoundRect,0.237500X0.287500X0.237500X-0.287500X0.237500X-0.287500X-0.237500X0.287500X-0.237500X0*%
%ADD50R,0.900000X2.000000*%
%ADD51RoundRect,1.025000X-1.025000X-1.025000X1.025000X-1.025000X1.025000X1.025000X-1.025000X1.025000X0*%
%ADD52C,4.100000*%
%ADD53R,1.873900X0.612132*%
%ADD54RoundRect,0.325000X-1.175000X0.325000X-1.175000X-0.325000X1.175000X-0.325000X1.175000X0.325000X0*%
%ADD55O,2.900000X1.200000*%
%ADD56RoundRect,0.250000X0.412500X1.100000X-0.412500X1.100000X-0.412500X-1.100000X0.412500X-1.100000X0*%
%ADD57RoundRect,0.150000X-0.825000X-0.150000X0.825000X-0.150000X0.825000X0.150000X-0.825000X0.150000X0*%
%ADD58R,1.200000X1.200000*%
%ADD59R,0.558800X0.203200*%
%ADD60R,0.203200X0.558800*%
%ADD61R,0.127000X0.127000*%
%ADD62FreePoly0,0.000000*%
%ADD63FreePoly1,0.000000*%
%ADD64FreePoly2,90.000000*%
%ADD65R,2.717800X2.641600*%
%ADD66R,1.524000X2.641600*%
%ADD67R,0.450000X1.310000*%
%ADD68R,4.000000X2.650000*%
%ADD69RoundRect,0.112500X0.112500X0.637500X-0.112500X0.637500X-0.112500X-0.637500X0.112500X-0.637500X0*%
%ADD70R,1.473200X0.355600*%
%ADD71R,2.413000X5.283200*%
%ADD72RoundRect,0.250000X0.650000X-1.500000X0.650000X1.500000X-0.650000X1.500000X-0.650000X-1.500000X0*%
%ADD73RoundRect,0.250000X-0.337500X-0.475000X0.337500X-0.475000X0.337500X0.475000X-0.337500X0.475000X0*%
G04 APERTURE END LIST*
D10*
X165862000Y-36218500D03*
X165862000Y-34393500D03*
D11*
X180595000Y-110236000D03*
X183895000Y-110236000D03*
D12*
X122000000Y-32000000D03*
D13*
X101777800Y-60401200D03*
X101277674Y-60401200D03*
X100777548Y-60401200D03*
X100277422Y-60401200D03*
X100277422Y-62001400D03*
X100777548Y-62001400D03*
X101277674Y-62001400D03*
X101777800Y-62001400D03*
D14*
X83312000Y-52427500D03*
X83312000Y-54252500D03*
D12*
X181000000Y-115000000D03*
D10*
X169188000Y-31265500D03*
X169188000Y-29440500D03*
D15*
X127754500Y-52700000D03*
X125929500Y-52700000D03*
D16*
X132362500Y-43200000D03*
X130637500Y-43200000D03*
D17*
X126849500Y-41656000D03*
X128674500Y-41656000D03*
D18*
X172852500Y-82700000D03*
X174577500Y-82700000D03*
D14*
X126000000Y-71687500D03*
X126000000Y-73512500D03*
D18*
X103317626Y-48331000D03*
X105042626Y-48331000D03*
D19*
X168077500Y-52062500D03*
X168077500Y-50337500D03*
X143750000Y-58562500D03*
X143750000Y-56837500D03*
D17*
X172440000Y-98114000D03*
X174265000Y-98114000D03*
D20*
X114430000Y-75923600D03*
X114430000Y-78463600D03*
X111890000Y-75923600D03*
X111890000Y-78463600D03*
X109350000Y-75923600D03*
X109350000Y-78463600D03*
X106810000Y-75923600D03*
X106810000Y-78463600D03*
X104270000Y-75923600D03*
X104270000Y-78463600D03*
X101730000Y-75923600D03*
X101730000Y-78463600D03*
X99190000Y-75923600D03*
X99190000Y-78463600D03*
X96650000Y-75923600D03*
X96650000Y-78463600D03*
X94110000Y-75923600D03*
X94110000Y-78463600D03*
X91570000Y-75923600D03*
X91570000Y-78463600D03*
X114430000Y-101323600D03*
X114430000Y-103863600D03*
X111890000Y-101323600D03*
X111890000Y-103863600D03*
X109350000Y-101323600D03*
X109350000Y-103863600D03*
X106810000Y-101323600D03*
X106810000Y-103863600D03*
X104270000Y-101323600D03*
X104270000Y-103863600D03*
X101730000Y-101323600D03*
X101730000Y-103863600D03*
X99190000Y-101323600D03*
X99190000Y-103863600D03*
X96650000Y-101323600D03*
X96650000Y-103863600D03*
X94110000Y-101323600D03*
X94110000Y-103863600D03*
X91570000Y-101323600D03*
X91570000Y-103863600D03*
D17*
X126247500Y-32766000D03*
X128072500Y-32766000D03*
D21*
X78740000Y-45946000D03*
X78740000Y-44196000D03*
D22*
X132080000Y-109240000D03*
D23*
X134080000Y-109240000D03*
X136080000Y-109240000D03*
X138080000Y-109240000D03*
D24*
X174387500Y-54751700D03*
X173117500Y-54751700D03*
X171847500Y-54751700D03*
X170577500Y-54751700D03*
X170577500Y-60200000D03*
X171847500Y-60200000D03*
X173117500Y-60200000D03*
X174387500Y-60200000D03*
D25*
X172482500Y-57475850D03*
D18*
X167539500Y-44196000D03*
X169264500Y-44196000D03*
D26*
X145838000Y-49308000D03*
D27*
X145838000Y-51308000D03*
D18*
X172490000Y-95066000D03*
X174215000Y-95066000D03*
D13*
X100107622Y-85476200D03*
X100607748Y-85476200D03*
X101107874Y-85476200D03*
X101608000Y-85476200D03*
X101608000Y-83876000D03*
X101107874Y-83876000D03*
X100607748Y-83876000D03*
X100107622Y-83876000D03*
D28*
X161766000Y-80518000D03*
X157766000Y-80518000D03*
D15*
X127754500Y-65700000D03*
X125929500Y-65700000D03*
D29*
X179715000Y-89700000D03*
X179715000Y-85700000D03*
D14*
X139446000Y-101525000D03*
X139446000Y-103350000D03*
D30*
X93975000Y-81879600D03*
D31*
X96515000Y-81879600D03*
D10*
X137922000Y-103350000D03*
X137922000Y-101525000D03*
D19*
X145500000Y-45562500D03*
X145500000Y-43837500D03*
D14*
X126000000Y-58087503D03*
X126000000Y-59912503D03*
D32*
X140342000Y-85837500D03*
X140342000Y-87562500D03*
D19*
X142240000Y-40740500D03*
X142240000Y-39015500D03*
D22*
X80010000Y-116290000D03*
D23*
X82010000Y-116290000D03*
D22*
X113015000Y-116290000D03*
D23*
X115015000Y-116290000D03*
X117015000Y-116290000D03*
X119015000Y-116290000D03*
D22*
X97125000Y-116290000D03*
D23*
X99125000Y-116290000D03*
X101125000Y-116290000D03*
X103125000Y-116290000D03*
X105125000Y-116290000D03*
X107125000Y-116290000D03*
D19*
X142494000Y-34898500D03*
X142494000Y-33173500D03*
D33*
X162571000Y-66614000D03*
X162571000Y-67564000D03*
X162571000Y-68514000D03*
X164846000Y-68514000D03*
X164846000Y-67564000D03*
X164846000Y-66614000D03*
D14*
X119888000Y-41251500D03*
X119888000Y-43076500D03*
D10*
X127842000Y-47112500D03*
X127842000Y-45287500D03*
D33*
X157866500Y-66614000D03*
X157866500Y-67564000D03*
X157866500Y-68514000D03*
X160141500Y-68514000D03*
X160141500Y-67564000D03*
X160141500Y-66614000D03*
D34*
X86415000Y-112240000D03*
X86415000Y-110340000D03*
X84540000Y-111290000D03*
D19*
X145500000Y-58562500D03*
X145500000Y-56837500D03*
D16*
X100392174Y-90404600D03*
X98667174Y-90404600D03*
D15*
X127754500Y-63700000D03*
X125929500Y-63700000D03*
D22*
X70000000Y-116290000D03*
D23*
X72000000Y-116290000D03*
X74000000Y-116290000D03*
D22*
X143510000Y-109290000D03*
D23*
X145510000Y-109290000D03*
X147510000Y-109290000D03*
X149510000Y-109290000D03*
D35*
X158000000Y-32462500D03*
D36*
X155980000Y-32462500D03*
D37*
X154750000Y-32462500D03*
D35*
X157000000Y-32462500D03*
D36*
X159020000Y-32462500D03*
D37*
X160250000Y-32462500D03*
D38*
X161820000Y-32182500D03*
X161820000Y-28382500D03*
X153180000Y-32182500D03*
X153180000Y-28382500D03*
D18*
X100381900Y-82397600D03*
X102106900Y-82397600D03*
D14*
X78740000Y-40743500D03*
X78740000Y-42568500D03*
D39*
X116868000Y-76200000D03*
X120368000Y-76200000D03*
D40*
X83378000Y-50467500D03*
X85278000Y-50467500D03*
X84328000Y-48592500D03*
D41*
X95728700Y-87904600D03*
X93653700Y-87904600D03*
D22*
X84000000Y-29000000D03*
D23*
X86000000Y-29000000D03*
X88000000Y-29000000D03*
D10*
X168215000Y-98112500D03*
X168215000Y-96287500D03*
D14*
X115542626Y-49606000D03*
X115542626Y-51431000D03*
D41*
X96287500Y-54364000D03*
X94212500Y-54364000D03*
D14*
X76200000Y-40743500D03*
X76200000Y-42568500D03*
D42*
X104045500Y-91926000D03*
X107170500Y-91926000D03*
D14*
X73202800Y-52427500D03*
X73202800Y-54252500D03*
D19*
X143750000Y-87562500D03*
X143750000Y-85837500D03*
D30*
X93975000Y-47244000D03*
D31*
X96515000Y-47244000D03*
D18*
X172215000Y-65250000D03*
X173940000Y-65250000D03*
D43*
X141706600Y-101837001D03*
X141706600Y-102486999D03*
X141706600Y-103137001D03*
X141706600Y-103786999D03*
X141706600Y-104436998D03*
X141706600Y-105086999D03*
X141706600Y-105736998D03*
X141706600Y-106386999D03*
X147345400Y-106386999D03*
X147345400Y-105737001D03*
X147345400Y-105086999D03*
X147345400Y-104437001D03*
X147345400Y-103787002D03*
X147345400Y-103137001D03*
X147345400Y-102487002D03*
X147345400Y-101837001D03*
D15*
X127754500Y-92200000D03*
X125929500Y-92200000D03*
D22*
X112000000Y-29000000D03*
D23*
X114000000Y-29000000D03*
X116000000Y-29000000D03*
D16*
X101404463Y-57014200D03*
X99679463Y-57014200D03*
D44*
X146012000Y-40661500D03*
X146012000Y-38586500D03*
D16*
X100836900Y-97383600D03*
X99111900Y-97383600D03*
D18*
X172215000Y-67000000D03*
X173940000Y-67000000D03*
X163111000Y-62484000D03*
X164836000Y-62484000D03*
D45*
X94291774Y-63364000D03*
X94291774Y-57464000D03*
D26*
X145838000Y-62000000D03*
D27*
X145838000Y-64000000D03*
D15*
X127754500Y-50700000D03*
X125929500Y-50700000D03*
D29*
X180077500Y-56750000D03*
X180077500Y-52750000D03*
D42*
X180676500Y-107200000D03*
X183801500Y-107200000D03*
D22*
X70000000Y-108290000D03*
D23*
X72000000Y-108290000D03*
X74000000Y-108290000D03*
D22*
X98000000Y-36000000D03*
D23*
X100000000Y-36000000D03*
X102000000Y-36000000D03*
D22*
X132080000Y-116240000D03*
D23*
X134080000Y-116240000D03*
X136080000Y-116240000D03*
X138080000Y-116240000D03*
D15*
X81922500Y-108290000D03*
X80097500Y-108290000D03*
D17*
X129549500Y-29718000D03*
X131374500Y-29718000D03*
D30*
X124206000Y-118120000D03*
D31*
X124206000Y-115580000D03*
X124206000Y-113040000D03*
D19*
X145500000Y-72562500D03*
X145500000Y-70837500D03*
D13*
X103179748Y-51931200D03*
X103679874Y-51931200D03*
X104180000Y-51931200D03*
X104680126Y-51931200D03*
X104680126Y-50331000D03*
X104180000Y-50331000D03*
X103679874Y-50331000D03*
X103179748Y-50331000D03*
D30*
X78500000Y-96660000D03*
D31*
X78500000Y-94120000D03*
X78500000Y-91580000D03*
X78500000Y-89040000D03*
X78500000Y-86500000D03*
X78500000Y-83960000D03*
X78500000Y-81420000D03*
X78500000Y-78880000D03*
X78500000Y-76340000D03*
X78500000Y-73800000D03*
D26*
X145838000Y-91100000D03*
D27*
X145838000Y-93100000D03*
D16*
X101291774Y-63914000D03*
X99566774Y-63914000D03*
D19*
X148590000Y-34898500D03*
X148590000Y-33173500D03*
D46*
X163463000Y-27686000D03*
X165213000Y-27686000D03*
D21*
X80772000Y-45946000D03*
X80772000Y-44196000D03*
D47*
X156836000Y-48014500D03*
D48*
X163136000Y-50294500D03*
D47*
X156836000Y-52574500D03*
D49*
X169275600Y-27686000D03*
X167525600Y-27686000D03*
D50*
X171792000Y-36500000D03*
X185292000Y-36500000D03*
D51*
X174942000Y-42500000D03*
D52*
X182142000Y-42500000D03*
D14*
X111608000Y-86513500D03*
X111608000Y-88338500D03*
D10*
X84836000Y-54252500D03*
X84836000Y-52427500D03*
X165227000Y-31265500D03*
X165227000Y-29440500D03*
D14*
X170215000Y-82412500D03*
X170215000Y-84237500D03*
D10*
X169577500Y-52112500D03*
X169577500Y-50287500D03*
D14*
X115542626Y-53018500D03*
X115542626Y-54843500D03*
D13*
X101030052Y-93804400D03*
X100529926Y-93804400D03*
X100029800Y-93804400D03*
X99529674Y-93804400D03*
X99529674Y-95404600D03*
X100029800Y-95404600D03*
X100529926Y-95404600D03*
X101030052Y-95404600D03*
D17*
X129549500Y-34290000D03*
X131374500Y-34290000D03*
D20*
X114360000Y-41530000D03*
X114360000Y-44070000D03*
X111820000Y-41530000D03*
X111820000Y-44070000D03*
X109280000Y-41530000D03*
X109280000Y-44070000D03*
X106740000Y-41530000D03*
X106740000Y-44070000D03*
X104200000Y-41530000D03*
X104200000Y-44070000D03*
X101660000Y-41530000D03*
X101660000Y-44070000D03*
X99120000Y-41530000D03*
X99120000Y-44070000D03*
X96580000Y-41530000D03*
X96580000Y-44070000D03*
X94040000Y-41530000D03*
X94040000Y-44070000D03*
X91500000Y-41530000D03*
X91500000Y-44070000D03*
X114360000Y-66930000D03*
X114360000Y-69470000D03*
X111820000Y-66930000D03*
X111820000Y-69470000D03*
X109280000Y-66930000D03*
X109280000Y-69470000D03*
X106740000Y-66930000D03*
X106740000Y-69470000D03*
X104200000Y-66930000D03*
X104200000Y-69470000D03*
X101660000Y-66930000D03*
X101660000Y-69470000D03*
X99120000Y-66930000D03*
X99120000Y-69470000D03*
X96580000Y-66930000D03*
X96580000Y-69470000D03*
X94040000Y-66930000D03*
X94040000Y-69470000D03*
X91500000Y-66930000D03*
X91500000Y-69470000D03*
D17*
X126247500Y-31242000D03*
X128072500Y-31242000D03*
D19*
X116840000Y-43026500D03*
X116840000Y-41301500D03*
D18*
X139137500Y-65700000D03*
X140862500Y-65700000D03*
D22*
X163370000Y-109290000D03*
D23*
X165370000Y-109290000D03*
X167370000Y-109290000D03*
X169370000Y-109290000D03*
D14*
X164338000Y-34393500D03*
X164338000Y-36218500D03*
D32*
X142000000Y-56837500D03*
X142000000Y-58562500D03*
D22*
X84000000Y-36000000D03*
D23*
X86000000Y-36000000D03*
X88000000Y-36000000D03*
D11*
X179706000Y-76454000D03*
X183006000Y-76454000D03*
D10*
X118364000Y-43076500D03*
X118364000Y-41251500D03*
D42*
X180652500Y-103200000D03*
X183777500Y-103200000D03*
D15*
X127754500Y-77200000D03*
X125929500Y-77200000D03*
D14*
X126000000Y-87087500D03*
X126000000Y-88912500D03*
D30*
X154381200Y-118110000D03*
D31*
X154381200Y-115570000D03*
X154381200Y-113030000D03*
D18*
X139037500Y-52700000D03*
X140762500Y-52700000D03*
D53*
X120527445Y-46293999D03*
X120527445Y-48194001D03*
X122398155Y-47244000D03*
D54*
X82200000Y-59100000D03*
X82200000Y-61600000D03*
X82200000Y-63600000D03*
X82200000Y-66100000D03*
D55*
X78500000Y-56200000D03*
X78500000Y-69000000D03*
D17*
X170873000Y-71628000D03*
X172698000Y-71628000D03*
D32*
X140342000Y-70837500D03*
X140342000Y-72562500D03*
D17*
X172165000Y-63500000D03*
X173990000Y-63500000D03*
D15*
X161059500Y-35052000D03*
X159234500Y-35052000D03*
D26*
X152838000Y-47808000D03*
D27*
X152838000Y-49808000D03*
X152838000Y-51808000D03*
X152838000Y-53808000D03*
D19*
X145542000Y-34898500D03*
X145542000Y-33173500D03*
D18*
X173215000Y-49200000D03*
X174940000Y-49200000D03*
D30*
X169199800Y-104648000D03*
D31*
X166659800Y-104648000D03*
X164119800Y-104648000D03*
D10*
X168215000Y-94612500D03*
X168215000Y-92787500D03*
D19*
X147066000Y-34898500D03*
X147066000Y-33173500D03*
X182715000Y-90562500D03*
X182715000Y-88837500D03*
D18*
X172852500Y-81200000D03*
X174577500Y-81200000D03*
D44*
X144018000Y-40661500D03*
X144018000Y-38586500D03*
D19*
X143750000Y-72562500D03*
X143750000Y-70837500D03*
D17*
X126849500Y-40132000D03*
X128674500Y-40132000D03*
D19*
X183077500Y-57562500D03*
X183077500Y-55837500D03*
D17*
X126247500Y-29718000D03*
X128072500Y-29718000D03*
D14*
X171077500Y-50287500D03*
X171077500Y-52112500D03*
D10*
X89791774Y-63151500D03*
X89791774Y-61326500D03*
X89167174Y-92904600D03*
X89167174Y-91079600D03*
D30*
X127006400Y-118110000D03*
D31*
X127006400Y-115570000D03*
X127006400Y-113030000D03*
D45*
X93667174Y-96854600D03*
X93667174Y-90954600D03*
D22*
X112000000Y-36000000D03*
D23*
X114000000Y-36000000D03*
X116000000Y-36000000D03*
D56*
X177757000Y-70200000D03*
X174632000Y-70200000D03*
D57*
X76403200Y-48895000D03*
X76403200Y-50165000D03*
X76403200Y-51435000D03*
X76403200Y-52705000D03*
X81353200Y-52705000D03*
X81353200Y-51435000D03*
X81353200Y-50165000D03*
X81353200Y-48895000D03*
D16*
X101404463Y-58514200D03*
X99679463Y-58514200D03*
D30*
X154381200Y-109992000D03*
D31*
X154381200Y-107452000D03*
X154381200Y-104912000D03*
D30*
X124187000Y-109982000D03*
D31*
X124187000Y-107442000D03*
X124187000Y-104902000D03*
D22*
X145320000Y-28914000D03*
D23*
X147320000Y-28914000D03*
D42*
X179793500Y-70200000D03*
X182918500Y-70200000D03*
D45*
X111042626Y-48931000D03*
X111042626Y-54831000D03*
D30*
X135392000Y-102108000D03*
D31*
X132852000Y-102108000D03*
X130312000Y-102108000D03*
D18*
X130963500Y-36576000D03*
X132688500Y-36576000D03*
D22*
X163370000Y-116290000D03*
D23*
X165370000Y-116290000D03*
X167370000Y-116290000D03*
X169370000Y-116290000D03*
D18*
X173215000Y-52200000D03*
X174940000Y-52200000D03*
D58*
X151000000Y-32400000D03*
X151000000Y-29600000D03*
D17*
X83415500Y-46736000D03*
X85240500Y-46736000D03*
D22*
X143510000Y-116290000D03*
D23*
X145510000Y-116290000D03*
X147510000Y-116290000D03*
X149510000Y-116290000D03*
D28*
X161766000Y-76835000D03*
X157766000Y-76835000D03*
D21*
X76200000Y-45946000D03*
X76200000Y-44196000D03*
D45*
X179215000Y-93250000D03*
X179215000Y-99150000D03*
D59*
X134851001Y-37099999D03*
X134851001Y-37500001D03*
X134851001Y-37900000D03*
X134851001Y-38300000D03*
X134851001Y-38699999D03*
X134851001Y-39100001D03*
D60*
X135376001Y-40025000D03*
X135776000Y-40025000D03*
X136176002Y-40025000D03*
X136576001Y-40025000D03*
X136976000Y-40025000D03*
X137376002Y-40025000D03*
X137776001Y-40025000D03*
X138176000Y-40025000D03*
X138576002Y-40025000D03*
X138976001Y-40025000D03*
X139376000Y-40025000D03*
X139776000Y-40025000D03*
X140176001Y-40025000D03*
D61*
X140701001Y-39100001D03*
X140701001Y-38699999D03*
D62*
X140701001Y-38300000D03*
D63*
X140701001Y-37900000D03*
D61*
X140701001Y-37500001D03*
X140701001Y-37099999D03*
D60*
X140176001Y-36175000D03*
X139776002Y-36175000D03*
X139376000Y-36175000D03*
X138976001Y-36175000D03*
X138576002Y-36175000D03*
X138176000Y-36175000D03*
D64*
X137776001Y-36175000D03*
D60*
X137376002Y-36175000D03*
D64*
X136976000Y-36175000D03*
D61*
X136576001Y-36175000D03*
D60*
X136176002Y-36175000D03*
X135776002Y-36175000D03*
X135376001Y-36175000D03*
D65*
X136811001Y-38100000D03*
D66*
X139336069Y-38100000D03*
D14*
X162814000Y-34393500D03*
X162814000Y-36218500D03*
X80772000Y-40743500D03*
X80772000Y-42568500D03*
D16*
X136244500Y-34671000D03*
X134519500Y-34671000D03*
D10*
X127842000Y-59912503D03*
X127842000Y-58087503D03*
D19*
X145500000Y-87562500D03*
X145500000Y-85837500D03*
D14*
X111608000Y-83013500D03*
X111608000Y-84838500D03*
D15*
X127754500Y-94200000D03*
X125929500Y-94200000D03*
X127704500Y-79200000D03*
X125879500Y-79200000D03*
D22*
X113015000Y-109290000D03*
D23*
X115015000Y-109290000D03*
X117015000Y-109290000D03*
X119015000Y-109290000D03*
D18*
X104177626Y-55831000D03*
X105902626Y-55831000D03*
D32*
X142000000Y-70837500D03*
X142000000Y-72562500D03*
D17*
X129549500Y-32766000D03*
X131374500Y-32766000D03*
D22*
X70000000Y-29000000D03*
D23*
X72000000Y-29000000D03*
X74000000Y-29000000D03*
D18*
X139091500Y-34544000D03*
X140816500Y-34544000D03*
X139091500Y-33020000D03*
X140816500Y-33020000D03*
D16*
X132362500Y-85275002D03*
X130637500Y-85275002D03*
D26*
X145888000Y-76216000D03*
D27*
X145888000Y-78216000D03*
D19*
X167215000Y-84187500D03*
X167215000Y-82462500D03*
D47*
X156836000Y-55126500D03*
D48*
X163136000Y-57406500D03*
D47*
X156836000Y-59686500D03*
D22*
X98000000Y-29000000D03*
D23*
X100000000Y-29000000D03*
X102000000Y-29000000D03*
D17*
X163061000Y-64008000D03*
X164886000Y-64008000D03*
D18*
X158141500Y-62484000D03*
X159866500Y-62484000D03*
D12*
X75000000Y-102000000D03*
D24*
X174120000Y-87475850D03*
X172850000Y-87475850D03*
X171580000Y-87475850D03*
X170310000Y-87475850D03*
X170310000Y-92924150D03*
X171580000Y-92924150D03*
X172850000Y-92924150D03*
X174120000Y-92924150D03*
D25*
X172215000Y-90200000D03*
D17*
X159234500Y-36576000D03*
X161059500Y-36576000D03*
D22*
X88615000Y-116290000D03*
D23*
X90615000Y-116290000D03*
D10*
X168577500Y-67625000D03*
X168577500Y-65800000D03*
D15*
X103122100Y-112318800D03*
X101297100Y-112318800D03*
D16*
X100392174Y-91904600D03*
X98667174Y-91904600D03*
D30*
X127000000Y-109982000D03*
D31*
X127000000Y-107442000D03*
X127000000Y-104902000D03*
D18*
X104180126Y-54331000D03*
X105905126Y-54331000D03*
D10*
X127842000Y-88912500D03*
X127842000Y-87087500D03*
D14*
X126000000Y-45287500D03*
X126000000Y-47112500D03*
D26*
X152838000Y-74216000D03*
D27*
X152838000Y-76216000D03*
X152838000Y-78216000D03*
X152838000Y-80216000D03*
D18*
X173215000Y-50700000D03*
X174940000Y-50700000D03*
D15*
X172698000Y-70038000D03*
X170873000Y-70038000D03*
D67*
X165526000Y-38298000D03*
X164876000Y-38298000D03*
X164226000Y-38298000D03*
X163576000Y-38303000D03*
X162926000Y-38298000D03*
X162276000Y-38298000D03*
X161626000Y-38298000D03*
X161626000Y-43998000D03*
X162276000Y-43998000D03*
X162926000Y-43998000D03*
X163576000Y-43998000D03*
X164226000Y-43998000D03*
X164876000Y-43998000D03*
X165526000Y-43998000D03*
D68*
X163576000Y-41148000D03*
D10*
X127842000Y-73512500D03*
X127842000Y-71687500D03*
D15*
X170838500Y-77216000D03*
X169013500Y-77216000D03*
D17*
X158091500Y-64008000D03*
X159916500Y-64008000D03*
D26*
X152838000Y-89000000D03*
D27*
X152838000Y-91000000D03*
X152838000Y-93000000D03*
X152838000Y-95000000D03*
D18*
X172852500Y-84200000D03*
X174577500Y-84200000D03*
D69*
X157749000Y-35373000D03*
X156449000Y-35373000D03*
X157099000Y-38033000D03*
D10*
X89791774Y-59826500D03*
X89791774Y-58001500D03*
D34*
X167053500Y-78787601D03*
X167053500Y-76887601D03*
X165178500Y-77837601D03*
X81885000Y-112240000D03*
X81885000Y-110340000D03*
X80010000Y-111290000D03*
D18*
X100383000Y-88876000D03*
X102108000Y-88876000D03*
D10*
X168577500Y-63975000D03*
X168577500Y-62150000D03*
D70*
X131000000Y-87549999D03*
X131000000Y-88199998D03*
X131000000Y-88849996D03*
X131000000Y-89499997D03*
X131000000Y-90149996D03*
X131000000Y-90799997D03*
X131000000Y-91449996D03*
X131000000Y-92099997D03*
X131000000Y-92749996D03*
X131000000Y-93399997D03*
X131000000Y-94049996D03*
X131000000Y-94699997D03*
X136842000Y-94699997D03*
X136842000Y-94049998D03*
X136842000Y-93399997D03*
X136842000Y-92749999D03*
X136842000Y-92099997D03*
X136842000Y-91449999D03*
X136842000Y-90800000D03*
X136842000Y-90149999D03*
X136842000Y-89500000D03*
X136842000Y-88849999D03*
X136842000Y-88200000D03*
X136842000Y-87549999D03*
D71*
X133921000Y-91124998D03*
D22*
X134620000Y-28956000D03*
D23*
X136620000Y-28956000D03*
X138620000Y-28956000D03*
D22*
X70000000Y-36000000D03*
D23*
X72000000Y-36000000D03*
X74000000Y-36000000D03*
D17*
X126247500Y-34290000D03*
X128072500Y-34290000D03*
D30*
X106172000Y-60955000D03*
D31*
X106172000Y-63495000D03*
D19*
X144018000Y-34898500D03*
X144018000Y-33173500D03*
D16*
X132688500Y-38862000D03*
X130963500Y-38862000D03*
D21*
X73660000Y-45946000D03*
X73660000Y-44196000D03*
D18*
X100383000Y-87376000D03*
X102108000Y-87376000D03*
D56*
X178467500Y-103200000D03*
X175342500Y-103200000D03*
D45*
X107108000Y-82426000D03*
X107108000Y-88326000D03*
D32*
X142000000Y-43837500D03*
X142000000Y-45562500D03*
D34*
X107125000Y-112290000D03*
X107125000Y-110390000D03*
X105250000Y-111340000D03*
D14*
X73660000Y-40743500D03*
X73660000Y-42568500D03*
D16*
X132307500Y-70104000D03*
X130582500Y-70104000D03*
D10*
X168715000Y-84237500D03*
X168715000Y-82412500D03*
D15*
X86452500Y-108290000D03*
X84627500Y-108290000D03*
D72*
X168528000Y-41108000D03*
X168528000Y-36108000D03*
D18*
X139137500Y-94700000D03*
X140862500Y-94700000D03*
D32*
X140342000Y-43837500D03*
X140342000Y-45562500D03*
D30*
X157226000Y-109982000D03*
D31*
X157226000Y-107442000D03*
X157226000Y-104902000D03*
D42*
X179793500Y-73584000D03*
X182918500Y-73584000D03*
D30*
X109982000Y-60955000D03*
D31*
X109982000Y-63495000D03*
D18*
X117755500Y-74168000D03*
X119480500Y-74168000D03*
D73*
X108973800Y-57912000D03*
X111048800Y-57912000D03*
D26*
X152838000Y-60500000D03*
D27*
X152838000Y-62500000D03*
X152838000Y-64500000D03*
X152838000Y-66500000D03*
D70*
X131000000Y-58700003D03*
X131000000Y-59350002D03*
X131000000Y-60000000D03*
X131000000Y-60650001D03*
X131000000Y-61300000D03*
X131000000Y-61950001D03*
X131000000Y-62600000D03*
X131000000Y-63250001D03*
X131000000Y-63900000D03*
X131000000Y-64550001D03*
X131000000Y-65200000D03*
X131000000Y-65850001D03*
X136842000Y-65850001D03*
X136842000Y-65200002D03*
X136842000Y-64550001D03*
X136842000Y-63900003D03*
X136842000Y-63250001D03*
X136842000Y-62600003D03*
X136842000Y-61950004D03*
X136842000Y-61300003D03*
X136842000Y-60650004D03*
X136842000Y-60000003D03*
X136842000Y-59350004D03*
X136842000Y-58700003D03*
D71*
X133921000Y-62275002D03*
D19*
X143750000Y-45562500D03*
X143750000Y-43837500D03*
D70*
X130921000Y-45625001D03*
X130921000Y-46275000D03*
X130921000Y-46924998D03*
X130921000Y-47574999D03*
X130921000Y-48224998D03*
X130921000Y-48874999D03*
X130921000Y-49524998D03*
X130921000Y-50174999D03*
X130921000Y-50824998D03*
X130921000Y-51474999D03*
X130921000Y-52124998D03*
X130921000Y-52774999D03*
X136763000Y-52774999D03*
X136763000Y-52125000D03*
X136763000Y-51474999D03*
X136763000Y-50825001D03*
X136763000Y-50174999D03*
X136763000Y-49525001D03*
X136763000Y-48875002D03*
X136763000Y-48225001D03*
X136763000Y-47575002D03*
X136763000Y-46925001D03*
X136763000Y-46275002D03*
X136763000Y-45625001D03*
D71*
X133842000Y-49200000D03*
D70*
X131000000Y-72200000D03*
X131000000Y-72849999D03*
X131000000Y-73499997D03*
X131000000Y-74149998D03*
X131000000Y-74799997D03*
X131000000Y-75449998D03*
X131000000Y-76099997D03*
X131000000Y-76749998D03*
X131000000Y-77399997D03*
X131000000Y-78049998D03*
X131000000Y-78699997D03*
X131000000Y-79349998D03*
X136842000Y-79349998D03*
X136842000Y-78699999D03*
X136842000Y-78049998D03*
X136842000Y-77400000D03*
X136842000Y-76749998D03*
X136842000Y-76100000D03*
X136842000Y-75450001D03*
X136842000Y-74800000D03*
X136842000Y-74150001D03*
X136842000Y-73500000D03*
X136842000Y-72850001D03*
X136842000Y-72200000D03*
D71*
X133921000Y-75774999D03*
D10*
X89167174Y-96404600D03*
X89167174Y-94579600D03*
D30*
X157226000Y-118110000D03*
D31*
X157226000Y-115570000D03*
X157226000Y-113030000D03*
D32*
X140342000Y-56837500D03*
X140342000Y-58562500D03*
D16*
X132362500Y-56500000D03*
X130637500Y-56500000D03*
D34*
X168913000Y-71496000D03*
X168913000Y-69596000D03*
X167038000Y-70546000D03*
D45*
X179215000Y-60300000D03*
X179215000Y-66200000D03*
D16*
X174205000Y-96590000D03*
X172480000Y-96590000D03*
D32*
X142000000Y-85837500D03*
X142000000Y-87562500D03*
D17*
X169013500Y-78867000D03*
X170838500Y-78867000D03*
D14*
X73202800Y-49074700D03*
X73202800Y-50899700D03*
D18*
X139137500Y-79400000D03*
X140862500Y-79400000D03*
D17*
X129549500Y-31242000D03*
X131374500Y-31242000D03*
M02*
