M48
; DRILL file {KiCad 8.0.5} date 2024-10-28T15:03:58+0100
; FORMAT={-:-/ absolute / inch / decimal}
; #@! TF.CreationDate,2024-10-28T15:03:58+01:00
; #@! TF.GenerationSoftware,Kicad,Pcbnew,8.0.5
; #@! TF.FileFunction,Plated,1,2,PTH
FMAT,2
INCH
; #@! TA.AperFunction,Plated,PTH,ViaDrill
T1C0.0157
; #@! TA.AperFunction,Plated,PTH,ComponentDrill
T2C0.0197
; #@! TA.AperFunction,Plated,PTH,ComponentDrill
T3C0.0236
; #@! TA.AperFunction,Plated,PTH,ComponentDrill
T4C0.0295
; #@! TA.AperFunction,Plated,PTH,ViaDrill
T5C0.0315
; #@! TA.AperFunction,Plated,PTH,ComponentDrill
T6C0.0315
; #@! TA.AperFunction,Plated,PTH,ComponentDrill
T7C0.0394
; #@! TA.AperFunction,Plated,PTH,ComponentDrill
T8C0.1063
%
G90
G05
T1
X2.7661Y-3.2736
X2.85Y-3.8195
X2.85Y-3.9005
X2.87Y-2.735
X2.8957Y-3.1449
X2.9201Y-2.6849
X2.925Y-1.5
X2.926Y-2.136
X3.078Y-2.074
X3.094Y-4.382
X3.1Y-1.44
X3.1Y-1.5694
X3.1389Y-1.8089
X3.178Y-2.856
X3.188Y-3.768
X3.21Y-2.972
X3.22Y-1.4715
X3.22Y-1.5694
X3.236Y-2.136
X3.2779Y-2.7679
X3.282Y-4.3815
X3.284Y-1.912
X3.32Y-2.605
X3.34Y-1.265
X3.41Y-1.525
X3.41Y-1.965
X3.414Y-3.176
X3.4144Y-1.34
X3.42Y-1.62
X3.445Y-1.995
X3.455Y-1.915
X3.47Y-3.175
X3.475Y-3.0795
X3.4881Y-3.2219
X3.498Y-2.054
X3.5039Y-1.9351
X3.511Y-3.8447
X3.5132Y-3.0032
X3.515Y-1.525
X3.5248Y-1.2452
X3.5308Y-4.3692
X3.5351Y-2.534
X3.5433Y-1.62
X3.5623Y-1.2827
X3.5652Y-1.2048
X3.5828Y-4.4212
X3.5863Y-1.9617
X3.59Y-1.525
X3.59Y-2.094
X3.6027Y-1.2423
X3.604Y-4.296
X3.63Y-1.365
X3.6547Y-4.3493
X3.665Y-2.019
X3.67Y-1.445
X3.685Y-1.31
X3.745Y-2.0662
X3.77Y-1.0837
X3.816Y-3.4608
X3.835Y-2.185
X3.885Y-3.51
X3.91Y-1.065
X3.9229Y-2.1974
X3.9374Y-2.1576
X3.94Y-1.31
X3.9465Y-1.245
X3.952Y-1.782
X3.9868Y-3.655
X4.01Y-1.5365
X4.039Y-2.237
X4.0512Y-1.245
X4.06Y-1.31
X4.066Y-3.498
X4.07Y-2.085
X4.0812Y-3.705
X4.096Y-3.536
X4.144Y-4.346
X4.1561Y-2.0839
X4.1862Y-3.9202
X4.216Y-2.198
X4.2259Y-2.29
X4.2402Y-2.4398
X4.245Y-1.33
X4.245Y-1.49
X4.2462Y-2.235
X4.25Y-1.7904
X4.25Y-1.85
X4.3Y-1.385
X4.3Y-1.545
X4.3448Y-1.2448
X4.3851Y-1.2851
X4.394Y-3.2215
X4.402Y-2.9032
X4.4298Y-3.5148
X4.4406Y-3.375
X4.446Y-2.9046
X4.455Y-1.7904
X4.46Y-1.9874
X4.46Y-2.0426
X4.475Y-1.8785
X4.5Y-2.095
X4.52Y-3.375
X4.528Y-4.486
X4.5315Y-1.325
X4.5489Y-1.9048
X4.6024Y-1.225
X4.605Y-1.932
X4.605Y-2.005
X4.606Y-4.4864
X4.625Y-3.8209
X4.625Y-3.8976
X4.6273Y-3.3173
X4.64Y-3.725
X4.6576Y-1.162
X4.6576Y-1.275
X4.665Y-4.675
X4.674Y-4.5
X4.6908Y-2.5408
X4.7Y-3.5115
X4.7Y-3.6185
X4.705Y-1.52
X4.7076Y-4.195
X4.715Y-3.925
X4.7242Y-4.4953
X4.7246Y-2.7596
X4.73Y-1.932
X4.73Y-2.005
X4.73Y-2.095
X4.7371Y-4.13
X4.74Y-3.06
X4.7432Y-3.4332
X4.746Y-1.582
X4.746Y-4.572
X4.7582Y-2.6082
X4.7589Y-2.3539
X4.76Y-2.47
X4.76Y-4.26
X4.7615Y-2.895
X4.7666Y-4.195
X4.782Y-4.532
X4.7896Y-2.6946
X4.79Y-2.825
X4.8037Y-2.2687
X4.8134Y-1.8957
X4.82Y-1.824
X4.8228Y-3.508
X4.8228Y-3.59
X4.8282Y-2.5382
X4.8315Y-4.26
X4.834Y-4.41
X4.835Y-1.435
X4.846Y-2.7663
X4.8588Y-2.9488
X4.865Y-3.82
X4.865Y-3.9764
X4.866Y-2.213
X4.8663Y-2.1382
X4.87Y-1.825
X4.872Y-1.582
X4.8874Y-2.865
X4.91Y-2.3932
X4.91Y-2.468
X4.91Y-2.6644
X4.91Y-2.7411
X4.9134Y-1.9961
X4.9134Y-3.2008
X4.9134Y-3.3071
X4.914Y-3.004
X4.9213Y-2.1102
X4.93Y-1.2
X4.935Y-1.5
X4.9567Y-3.1654
X4.9567Y-3.7559
X4.9587Y-2.6339
X4.97Y-1.435
X4.9803Y-2.1181
X5.0063Y-1.1997
X5.02Y-4.0665
X5.0236Y-3.1614
X5.0276Y-2.1181
X5.0276Y-2.6339
X5.0315Y-3.3858
X5.0335Y-2.2382
X5.04Y-1.49
X5.04Y-4.0
X5.0472Y-3.1929
X5.0659Y-1.64
X5.0748Y-3.1614
X5.075Y-2.845
X5.0787Y-2.1181
X5.0787Y-2.6339
X5.0787Y-3.7638
X5.08Y-1.804
X5.0876Y-1.8986
X5.0925Y-2.4134
X5.0984Y-2.9449
X5.0984Y-3.1929
X5.0984Y-3.5512
X5.1024Y-3.7953
X5.126Y-3.1614
X5.1299Y-2.1181
X5.1299Y-2.6339
X5.1299Y-3.7638
X5.13Y-1.4
X5.1496Y-3.1929
X5.1535Y-3.7953
X5.156Y-1.53
X5.1722Y-1.23
X5.1732Y-3.1614
X5.175Y-1.395
X5.1772Y-2.1181
X5.1772Y-2.6339
X5.1772Y-3.7638
X5.195Y-4.095
X5.2008Y-3.1929
X5.2047Y-3.7953
X5.205Y-4.45
X5.2087Y-2.8031
X5.2126Y-1.7559
X5.2126Y-2.2756
X5.2126Y-3.311
X5.2126Y-3.4055
X5.2244Y-2.8465
X5.2244Y-2.8898
X5.2244Y-2.9331
X5.2244Y-2.9764
X5.2244Y-3.0197
X5.2244Y-3.0669
X5.2244Y-3.1142
X5.2244Y-3.1614
X5.2283Y-1.8031
X5.2283Y-1.8465
X5.2283Y-1.8898
X5.2283Y-1.9331
X5.2283Y-1.9764
X5.2283Y-2.0236
X5.2283Y-2.0709
X5.2283Y-2.1181
X5.2283Y-2.3189
X5.2283Y-2.3622
X5.2283Y-2.4055
X5.2283Y-2.4488
X5.2283Y-2.4921
X5.2283Y-2.5394
X5.2283Y-2.5866
X5.2283Y-2.6339
X5.2283Y-3.4488
X5.2283Y-3.4921
X5.2283Y-3.5354
X5.2283Y-3.5787
X5.2283Y-3.622
X5.2283Y-3.6693
X5.2283Y-3.7165
X5.2283Y-3.7638
X5.248Y-3.1929
X5.252Y-3.7953
X5.2559Y-2.7598
X5.2559Y-2.8031
X5.2598Y-1.6614
X5.2598Y-1.7087
X5.2598Y-1.7559
X5.2598Y-2.2323
X5.2598Y-2.2756
X5.2598Y-3.311
X5.2598Y-3.3622
X5.2598Y-3.4055
X5.265Y-1.23
X5.27Y-4.1811
X5.2717Y-2.8465
X5.2717Y-2.8898
X5.2717Y-2.9331
X5.2717Y-2.9764
X5.2717Y-3.0197
X5.2717Y-3.0669
X5.2717Y-3.1142
X5.2717Y-3.1614
X5.2756Y-1.8031
X5.2756Y-1.8465
X5.2756Y-1.8898
X5.2756Y-1.9331
X5.2756Y-1.9764
X5.2756Y-2.0236
X5.2756Y-2.0709
X5.2756Y-2.1181
X5.2756Y-2.3189
X5.2756Y-2.3622
X5.2756Y-2.4055
X5.2756Y-2.4488
X5.2756Y-2.4921
X5.2756Y-2.5394
X5.2756Y-2.5866
X5.2756Y-2.6339
X5.2756Y-3.4488
X5.2756Y-3.4921
X5.2756Y-3.5354
X5.2756Y-3.5787
X5.2756Y-3.622
X5.2756Y-3.6693
X5.2756Y-3.7165
X5.2756Y-3.7638
X5.2884Y-1.2934
X5.2953Y-3.1929
X5.2992Y-3.7953
X5.3Y-4.155
X5.3031Y-2.7598
X5.3031Y-2.8031
X5.3071Y-1.6614
X5.3071Y-1.7087
X5.3071Y-1.7559
X5.3071Y-2.2323
X5.3071Y-2.2756
X5.3071Y-3.311
X5.3071Y-3.3622
X5.3071Y-3.4055
X5.3189Y-2.8465
X5.3189Y-2.8898
X5.3189Y-2.9331
X5.3189Y-2.9764
X5.3189Y-3.0197
X5.3189Y-3.0669
X5.3189Y-3.1142
X5.3189Y-3.1614
X5.3228Y-1.8031
X5.3228Y-1.8465
X5.3228Y-1.8898
X5.3228Y-1.9331
X5.3228Y-1.9764
X5.3228Y-2.0236
X5.3228Y-2.0709
X5.3228Y-2.1181
X5.3228Y-2.3189
X5.3228Y-2.3622
X5.3228Y-2.4055
X5.3228Y-2.4488
X5.3228Y-2.4921
X5.3228Y-2.5394
X5.3228Y-2.5866
X5.3228Y-2.6339
X5.3228Y-3.4488
X5.3228Y-3.4921
X5.3228Y-3.5354
X5.3228Y-3.5787
X5.3228Y-3.622
X5.3228Y-3.6693
X5.3228Y-3.7165
X5.3228Y-3.7638
X5.3248Y-4.5047
X5.33Y-1.325
X5.3425Y-3.1929
X5.3465Y-3.7953
X5.35Y-4.105
X5.35Y-1.47
X5.35Y-1.53
X5.3509Y-1.2309
X5.3543Y-2.7598
X5.3543Y-2.8031
X5.357Y-4.212
X5.3583Y-1.6614
X5.3583Y-1.7087
X5.3583Y-1.7559
X5.3583Y-2.2323
X5.3583Y-2.2756
X5.3583Y-3.311
X5.3583Y-3.3622
X5.3583Y-3.4055
X5.364Y-1.365
X5.3661Y-3.1614
X5.3701Y-2.1181
X5.3701Y-2.6339
X5.3863Y-1.5
X5.3898Y-3.1929
X5.3937Y-3.7953
X5.4055Y-2.7598
X5.4055Y-2.8031
X5.4094Y-1.6614
X5.4094Y-1.7087
X5.4094Y-1.7559
X5.4094Y-2.2323
X5.4094Y-2.2756
X5.4094Y-3.311
X5.4094Y-3.3622
X5.4094Y-3.4055
X5.4134Y-3.1614
X5.4165Y-1.2785
X5.4173Y-2.1181
X5.4173Y-2.6339
X5.42Y-1.47
X5.42Y-1.53
X5.43Y-1.62
X5.43Y-3.997
X5.4362Y-4.45
X5.4448Y-1.2431
X5.4488Y-1.9843
X5.4488Y-3.0354
X5.4488Y-3.6378
X5.4528Y-2.5
X5.4528Y-2.7598
X5.4528Y-2.8031
X5.4567Y-1.6614
X5.4567Y-1.7087
X5.4567Y-2.2323
X5.4567Y-3.311
X5.4567Y-3.3622
X5.47Y-1.5
X5.48Y-1.62
X5.5Y-1.47
X5.5Y-1.53
X5.5079Y-3.311
X5.5118Y-1.6614
X5.54Y-3.7756
X5.545Y-1.605
X5.5591Y-3.311
X5.56Y-1.26
X5.5663Y-1.1187
X5.5669Y-1.6614
X5.5875Y-1.4125
X5.5906Y-2.0748
X5.5984Y-2.5866
X5.5984Y-3.126
X5.5984Y-3.7283
X5.605Y-1.485
X5.61Y-1.26
X5.6142Y-3.311
X5.6181Y-1.6614
X5.636Y-4.01
X5.642Y-4.058
X5.6444Y-1.1444
X5.645Y-1.43
X5.6496Y-4.1929
X5.6693Y-3.311
X5.6732Y-1.6614
X5.69Y-3.985
X5.7283Y-1.6772
X5.7283Y-3.3307
X5.74Y-4.03
X5.7619Y-2.1181
X5.7677Y-2.2362
X5.7874Y-2.7559
X5.7953Y-1.4961
X5.84Y-2.23
X5.85Y-1.26
X5.8552Y-1.1891
X5.865Y-4.095
X5.875Y-2.02
X5.88Y-2.5
X5.8915Y-2.6415
X5.9002Y-2.1502
X5.91Y-1.09
X5.9157Y-4.2
X5.9157Y-4.245
X5.9177Y-4.524
X5.9189Y-2.0189
X5.9223Y-2.4973
X5.924Y-2.609
X5.9241Y-4.45
X5.9302Y-2.1202
X5.935Y-2.255
X5.935Y-2.3529
X5.945Y-1.37
X5.96Y-4.5276
X5.97Y-1.765
X6.0172Y-2.2578
X6.02Y-3.3309
X6.045Y-1.69
X6.11Y-1.345
X6.15Y-1.495
X6.16Y-2.92
X6.2Y-2.01
X6.21Y-2.3
X6.21Y-2.41
X6.26Y-1.215
X6.26Y-2.58
X6.2691Y-1.38
X6.27Y-2.12
X6.295Y-2.46
X6.3048Y-2.6226
X6.32Y-4.23
X6.32Y-4.395
X6.3272Y-2.41
X6.355Y-2.56
X6.3863Y-2.41
X6.41Y-1.3541
X6.4432Y-2.7324
X6.46Y-1.165
X6.46Y-1.2226
X6.47Y-1.31
X6.49Y-2.415
X6.53Y-1.31
X6.575Y-3.14
X6.59Y-2.825
X6.6066Y-2.1753
X6.6066Y-2.2343
X6.6066Y-2.2934
X6.6066Y-2.3524
X6.6066Y-3.4745
X6.6066Y-3.5335
X6.6066Y-3.5926
X6.6187Y-1.9311
X6.635Y-1.325
X6.6423Y-3.1949
X6.6657Y-2.1753
X6.6657Y-2.2343
X6.6657Y-2.2934
X6.6657Y-2.3524
X6.6657Y-3.5335
X6.6657Y-3.5926
X6.67Y-4.67
X6.71Y-1.74
X6.72Y-1.09
X6.725Y-3.15
X6.7407Y-3.5217
X6.7407Y-3.5768
X6.7526Y-2.2343
X6.7526Y-2.2894
X6.76Y-3.05
X6.7801Y-3.5217
X6.7801Y-3.5768
X6.7919Y-2.2343
X6.7919Y-2.2894
X6.8156Y-2.439
X6.8195Y-3.5217
X6.8195Y-3.5768
X6.8313Y-2.2343
X6.8313Y-2.2894
X6.854Y-2.686
X6.86Y-2.8445
X6.8608Y-3.9508
X6.8923Y-3.4409
X6.9018Y-3.9783
X6.9019Y-2.2343
X6.9019Y-2.2934
X6.9019Y-3.5335
X6.9019Y-3.5926
X6.9061Y-2.1516
X6.9081Y-3.7677
X6.9376Y-1.998
X6.9609Y-2.2343
X6.9609Y-2.2934
X6.9609Y-3.1792
X6.9609Y-3.2383
X6.9609Y-3.2973
X6.9609Y-3.3564
X6.9609Y-3.5335
X6.9612Y-1.88
X6.9612Y-1.94
X6.9612Y-2.0571
X6.9888Y-2.1043
X7.02Y-1.88
X7.02Y-1.9391
X7.02Y-1.9981
X7.02Y-3.1792
X7.02Y-3.2383
X7.0203Y-2.0571
X7.0791Y-1.9391
X7.0791Y-1.9981
X7.0791Y-3.1792
X7.0791Y-3.2383
X7.1381Y-1.9981
X7.1381Y-3.1792
X7.1381Y-3.2383
X7.1381Y-3.2973
X7.145Y-3.5
X7.16Y-2.2
X7.16Y-3.01
X7.1738Y-2.0768
X7.19Y-4.34
X7.1972Y-3.1792
X7.1972Y-3.2383
X7.1972Y-3.2973
X7.1972Y-3.3564
X7.2033Y-2.68
X7.225Y-2.445
X7.2348Y-3.977
X7.2562Y-3.2383
X7.2562Y-3.2973
X7.2562Y-3.3564
X7.32Y-1.86
T4
X2.7559Y-1.1417
X2.7559Y-1.4173
X2.7559Y-4.2634
X2.7559Y-4.5783
X2.8346Y-1.1417
X2.8346Y-1.4173
X2.8346Y-4.2634
X2.8346Y-4.5783
X2.9134Y-1.1417
X2.9134Y-1.4173
X2.9134Y-4.2634
X2.9134Y-4.5783
X3.15Y-4.5783
X3.2287Y-4.5783
X3.3071Y-1.1417
X3.3071Y-1.4173
X3.3858Y-1.1417
X3.3858Y-1.4173
X3.4646Y-1.1417
X3.4646Y-1.4173
X3.4888Y-4.5783
X3.5675Y-4.5783
X3.8238Y-4.5783
X3.8583Y-1.1417
X3.8583Y-1.4173
X3.9026Y-4.5783
X3.937Y-1.1417
X3.937Y-1.4173
X3.9813Y-4.5783
X4.0157Y-1.1417
X4.0157Y-1.4173
X4.06Y-4.5783
X4.1388Y-4.5783
X4.2175Y-4.5783
X4.4094Y-1.1417
X4.4094Y-1.4173
X4.4494Y-4.3028
X4.4494Y-4.5783
X4.4882Y-1.1417
X4.4882Y-1.4173
X4.5281Y-4.3028
X4.5281Y-4.5783
X4.5669Y-1.1417
X4.5669Y-1.4173
X4.6069Y-4.3028
X4.6069Y-4.5783
X4.6856Y-4.3028
X4.6856Y-4.5783
X5.2Y-4.3008
X5.2Y-4.5764
X5.2787Y-4.3008
X5.2787Y-4.5764
X5.3Y-1.14
X5.3575Y-4.3008
X5.3575Y-4.5764
X5.3787Y-1.14
X5.4362Y-4.3008
X5.4362Y-4.5764
X5.4575Y-1.14
X5.65Y-4.3028
X5.65Y-4.5783
X5.7213Y-1.1383
X5.7287Y-4.3028
X5.7287Y-4.5783
X5.7417Y-1.9413
X5.7417Y-2.02
X5.7417Y-2.4409
X5.7417Y-2.5197
X5.7417Y-3.5866
X5.7417Y-3.6654
X5.7436Y-3.0006
X5.7436Y-3.0794
X5.8Y-1.1383
X5.8075Y-4.3028
X5.8075Y-4.5783
X5.8862Y-4.3028
X5.8862Y-4.5783
X6.0172Y-1.8822
X6.0172Y-1.9609
X6.0172Y-2.0397
X6.0172Y-2.1184
X6.0172Y-2.3819
X6.0172Y-2.4606
X6.0172Y-2.5394
X6.0172Y-2.6181
X6.0172Y-2.9219
X6.0172Y-3.0006
X6.0172Y-3.0794
X6.0172Y-3.1581
X6.0172Y-3.5039
X6.0172Y-3.5827
X6.0172Y-3.6614
X6.0172Y-3.7402
X6.4319Y-4.3028
X6.4319Y-4.5783
X6.5106Y-4.3028
X6.5106Y-4.5783
X6.5894Y-4.3028
X6.5894Y-4.5783
X6.6681Y-4.3028
X6.6681Y-4.5783
T5
X6.1073Y-3.9173
X6.2675Y-3.7575
T6
X3.6024Y-1.635
X3.6024Y-1.735
X3.6024Y-2.635
X3.6024Y-2.735
X3.6051Y-2.9891
X3.6051Y-3.0891
X3.6051Y-3.9891
X3.6051Y-4.0891
X3.7024Y-1.635
X3.7024Y-1.735
X3.7024Y-2.635
X3.7024Y-2.735
X3.7051Y-2.9891
X3.7051Y-3.0891
X3.7051Y-3.9891
X3.7051Y-4.0891
X3.8024Y-1.635
X3.8024Y-1.735
X3.8024Y-2.635
X3.8024Y-2.735
X3.8051Y-2.9891
X3.8051Y-3.0891
X3.8051Y-3.9891
X3.8051Y-4.0891
X3.9024Y-1.635
X3.9024Y-1.735
X3.9024Y-2.635
X3.9024Y-2.735
X3.9051Y-2.9891
X3.9051Y-3.0891
X3.9051Y-3.9891
X3.9051Y-4.0891
X4.0024Y-1.635
X4.0024Y-1.735
X4.0024Y-2.635
X4.0024Y-2.735
X4.0051Y-2.9891
X4.0051Y-3.0891
X4.0051Y-3.9891
X4.0051Y-4.0891
X4.1024Y-1.635
X4.1024Y-1.735
X4.1024Y-2.635
X4.1024Y-2.735
X4.1051Y-2.9891
X4.1051Y-3.0891
X4.1051Y-3.9891
X4.1051Y-4.0891
X4.2024Y-1.635
X4.2024Y-1.735
X4.2024Y-2.635
X4.2024Y-2.735
X4.2051Y-2.9891
X4.2051Y-3.0891
X4.2051Y-3.9891
X4.2051Y-4.0891
X4.3024Y-1.635
X4.3024Y-1.735
X4.3024Y-2.635
X4.3024Y-2.735
X4.3051Y-2.9891
X4.3051Y-3.0891
X4.3051Y-3.9891
X4.3051Y-4.0891
X4.4024Y-1.635
X4.4024Y-1.735
X4.4024Y-2.635
X4.4024Y-2.735
X4.4051Y-2.9891
X4.4051Y-3.0891
X4.4051Y-3.9891
X4.4051Y-4.0891
X4.5024Y-1.635
X4.5024Y-1.735
X4.5024Y-2.635
X4.5024Y-2.735
X4.5051Y-2.9891
X4.5051Y-3.0891
X4.5051Y-3.9891
X4.5051Y-4.0891
T7
X3.0906Y-2.9055
X3.0906Y-3.0055
X3.0906Y-3.1055
X3.0906Y-3.2055
X3.0906Y-3.3055
X3.0906Y-3.4055
X3.0906Y-3.5055
X3.0906Y-3.6055
X3.0906Y-3.7055
X3.0906Y-3.8055
X3.6998Y-1.86
X3.6998Y-3.2236
X3.7998Y-1.86
X3.7998Y-3.2236
X4.18Y-2.3998
X4.18Y-2.4998
X4.33Y-2.3998
X4.33Y-2.4998
X4.8893Y-4.13
X4.8893Y-4.23
X4.8893Y-4.33
X4.89Y-4.4504
X4.89Y-4.5504
X4.89Y-4.6504
X5.0Y-4.13
X5.0Y-4.23
X5.0Y-4.33
X5.0003Y-4.45
X5.0003Y-4.55
X5.0003Y-4.65
X5.1304Y-4.02
X5.2304Y-4.02
X5.3304Y-4.02
X6.078Y-4.1304
X6.078Y-4.2304
X6.078Y-4.3304
X6.078Y-4.45
X6.078Y-4.55
X6.078Y-4.65
X6.19Y-4.13
X6.19Y-4.23
X6.19Y-4.33
X6.19Y-4.45
X6.19Y-4.55
X6.19Y-4.65
X6.4614Y-4.12
X6.5614Y-4.12
X6.6614Y-4.12
T8
X6.8875Y-1.6732
X7.1709Y-1.6732
T2
G00X6.0307Y-1.1312
M15
G01X6.0307Y-1.1036
M16
G05
G00X6.0307Y-1.2808
M15
G01X6.0307Y-1.2532
M16
G05
G00X6.3709Y-1.1312
M15
G01X6.3709Y-1.1036
M16
G05
G00X6.3709Y-1.2808
M15
G01X6.3709Y-1.2532
M16
G05
T3
G00X3.124Y-2.2126
M15
G01X3.0571Y-2.2126
M16
G05
G00X3.124Y-2.7165
M15
G01X3.0571Y-2.7165
M16
G05
G00X6.7635Y-1.4154
M15
G01X6.7635Y-1.4587
M16
G05
G00X7.295Y-1.4154
M15
G01X7.295Y-1.4587
M16
G05
M30
